<svg xmlns="http://www.w3.org/2000/svg" width="598.253" height="581.498"><path d="M317.376 441.361c-8.897 1.364-15.405 7.06-14.536 12.721.869 5.662 8.784 9.145 17.684 7.78a22.525 22.525 0 0 0 9.892-3.916l37.622-6.254-2.51-14.871-37.539 5.312a22.527 22.527 0 0 0-10.613-.772z" fill="#ffb6b6"/><path fill="#e6e6e6" d="m479.5 395.005-14.588 30.956-73.337 24.688-60.856 3.247-1.524-14.617 65.953-13.79 67.677-31.98 16.676 1.496z"/><path fill="#3f3d56" d="m311.11 330.288 2.001-.044 3.823 173.734-2 .044z"/><path d="M313.154 407.168c-.181-.616-4.327-15.269 4.65-29.67l1.698 1.058c-8.49 13.618-4.47 27.907-4.429 28.05l-1.92.562z" fill="#3f3d56"/><path d="M318.507 378.61s-2.73-18.656 22.414-23.776a158.717 158.717 0 0 1 14.677-2.281c5.328-.573 7.407 6.72 2.593 9.077-6.971 3.412-13.529 7.71-16.947 12.801-9.427 14.04-22.738 4.178-22.738 4.178z" fill="gold"/><path d="m315.74 461.115-1.92-.561c.042-.144 4.062-14.433-4.428-28.051l1.697-1.059c8.978 14.403 4.832 29.055 4.651 29.671z" fill="#3f3d56"/><path d="M310.388 432.556s2.73-18.655-22.415-23.775a158.717 158.717 0 0 0-14.676-2.281c-5.329-.574-7.408 6.72-2.594 9.077 6.971 3.412 13.53 7.71 16.947 12.801 9.427 14.04 22.738 4.178 22.738 4.178zM345.383 306.122c5.061-1.335 9.794-3.66 9.637-5.96-.187-2.733-7.213-4.564-13.275-4.842 4.572-3.577 8.773-8.522 7.489-10.758-1.181-2.056-6.676-1.26-11.745.55 3-4.288 5.109-9.121 3.503-10.775-2.001-2.06-9.102 1.496-13.949 5.427.944-6.124.467-13.854-2.28-14.553-2.298-.585-5.554 3.911-7.787 8.81-.987-5.14-2.984-10.021-5.29-10.021-3.284 0-5.947 9.903-5.947 16.354 0 .365.01.708.026 1.036-.33-.382-.707-.781-1.138-1.2-4.628-4.495-13.587-9.483-15.875-7.127-1.606 1.654.503 6.487 3.503 10.776-5.07-1.811-10.564-2.608-11.745-.552-1.587 2.763 5.197 9.659 10.71 13.003-.33-.04-.679-.073-1.05-.099-6.436-.439-16.497 1.543-16.72 4.82-.157 2.3 4.575 4.626 9.636 5.96-5.038 1.894-9.746 4.837-9.319 7.17.519 2.83 8.429 3.82 14.648 3.24-4.646 4.459-9.684 12.445-7.582 14.785 1.541 1.715 6.506-.06 10.99-2.761-2.152 4.934-3.32 10.362-1.35 11.68 2.605 1.742 9.748-4.321 13.514-9.539-.384 6.383 1.143 15.152 4.174 15.498 2.29.262 4.829-4.36 6.392-9.355 1.663 5.12 4.388 9.957 6.738 9.636 3.055-.417 4.386-9.405 3.816-15.793 3.885 5.003 10.423 10.353 12.89 8.704 1.97-1.319.802-6.746-1.35-11.68 4.483 2.7 9.448 4.476 10.99 2.76 2.102-2.34-2.936-10.326-7.583-14.784 6.22.58 14.13-.41 14.648-3.241.428-2.332-4.28-5.275-9.319-7.17zm-27.251 18.055c-1.301.177-2.49.43-3.395 1.078-.961-.954-2.365-1.244-3.926-1.423-1.747-.2-3.335-.218-4.546.79-.443-1.232-1.533-2.107-2.802-2.956-1.091-.73-2.15-1.329-3.256-1.444-.087-1.352-.944-2.5-1.994-3.669-.67-.745-1.34-1.411-2.082-1.857 1.072-1.305.948-2.955.617-4.766-.237-1.291-.544-2.468-1.232-3.342.909-1.004 1.135-2.42 1.242-3.986.117-1.712.068-3.263-.92-4.418 2.553.324 3.785-1.266 4.93-3.259.654-1.138 1.18-2.235 1.22-3.347 1.342-.178 2.43-1.112 3.524-2.239.935-.962 1.73-1.916 2.029-3.013 1.071.9 2.533 1.037 4.145 1.037 1.57 0 2.998-.13 4.062-.968.825.745 1.978 1.132 3.25 1.456 1.215.31 2.362.516 3.404.308.38.87 1.057 1.659 1.83 2.455 1.094 1.126 2.182 2.06 3.524 2.239.04 1.111.566 2.208 1.22 3.346.77 1.34 1.578 2.5 2.801 3.016-.142.779-.127 1.636-.066 2.537.107 1.567.334 2.983 1.243 3.986-.688.874-.996 2.051-1.232 3.343-.332 1.81-.456 3.46.617 4.766-.743.445-1.413 1.111-2.083 1.857-1.05 1.168-1.907 2.317-1.993 3.668-1.107.116-2.165.715-3.257 1.445-1.49.997-2.732 2.03-2.97 3.635-1.119-.543-2.458-.472-3.904-.275z" fill="gold"/><circle cx="314.659" cy="306.053" r="21.239" fill="#3f3d56"/><path d="M58.51 563.597c0 .66.53 1.19 1.19 1.19h522.29c.66 0 1.19-.53 1.19-1.19 0-.66-.53-1.19-1.19-1.19H59.7c-.66 0-1.19.53-1.19 1.19z" fill="#3f3d56"/><path fill="#ffb6b6" d="m344.239 512.546-13.097 33.129-16.95-11.557 10.016-34.67 20.03 13.098zM289.538 500.22l-34.669 33.128 13.868 14.638 35.44-27.736-14.639-20.03zM485.998 392.359l-.385-2.697-8.86-17.334-29.276 7.704 5.393 23.883 33.128-11.556z"/><path d="m473.671 507.923.9 11.572s3.723 48.522-26.324 52.374c-30.047 3.852-43.144 7.704-60.864-22.342l-27.735-49.308-16.2 19.276-21.552-16.965s15.41-60.093 27.736-62.404a28.127 28.127 0 0 1 4.598-.465c10.206-.213 19.825 4.779 25.931 12.958l34.958 46.83 12.712-5.779 45.84 14.253zM307.258 544.134l6.934-13.098 20.031 13.868s4.623 16.95-2.311 19.26c-6.934 2.312-26.195-.77-26.195-.77s-35.44 7.705-36.21.77 16.18-8.474 16.18-8.474l21.571-11.556z" fill="#2f2e41"/><path d="m382.76 534.888-53.544-33.738-27.35 24.493-18.491-21.572s33.899-50.078 43.914-52.389 26.195-3.852 26.195-3.852l49.308 45.455-20.032 41.603zM254.099 530.266l17.72 19.26-2.337 2s-4.597 20.022-15.383 13.249c-10.786-6.774-11.557-8.314-11.557-8.314s-30.817 6.933-33.899-5.393c-3.082-12.327 5.393-10.016 5.393-10.016l7.695 4.622 32.368-15.408z" fill="#2f2e41"/><circle cx="456.722" cy="363.853" r="24.654" fill="#ffb6b6"/><path d="m450.944 398.908 35.44-10.787s13.867 32.359 11.556 46.997c-2.311 14.638-23.368 84.377-23.368 84.377L427.83 493.67s-.77-15.408-3.082-22.342-9.63-28.12 6.549-45.84c16.179-17.72 19.646-26.58 19.646-26.58z" fill="#e6e6e6"/><g><path fill="#3f3d56" d="m102.844 156.022 2-.044 9 409-2 .044z"/><path d="M107.599 336.66c-.103-.35-10.018-35.358 10.799-68.751l1.697 1.058c-20.348 32.641-10.678 66.789-10.577 67.13l-1.92.563z" fill="#3f3d56"/><path d="M118.9 269.809s-6.425-43.917 52.768-55.97a373.645 373.645 0 0 1 34.552-5.37c12.544-1.35 17.437 15.821 6.105 21.368-16.412 8.032-31.85 18.152-39.896 30.137-22.192 33.053-53.528 9.835-53.528 9.835z" fill="gold"/><path d="m111.09 463.66-1.92-.562c.1-.341 9.752-34.52-10.577-67.131l1.698-1.059c20.816 33.394 10.901 68.403 10.799 68.752z" fill="#3f3d56"/><path d="M99.788 396.809s6.425-43.917-52.767-55.97a373.645 373.645 0 0 0-34.552-5.37c-12.544-1.35-17.437 15.821-6.105 21.368 16.411 8.032 31.849 18.152 39.896 30.137 22.192 33.053 53.528 9.835 53.528 9.835zM182.173 99.161c11.914-3.141 23.056-8.615 22.686-14.03-.439-6.433-16.98-10.743-31.25-11.4 10.763-8.42 20.653-20.06 17.629-25.325-2.78-4.84-15.716-2.966-27.65 1.297 7.063-10.097 12.028-21.474 8.247-25.368-4.71-4.85-21.428 3.521-32.837 12.775 2.22-14.416 1.098-32.613-5.368-34.26-5.41-1.377-13.076 9.208-18.332 20.74C112.975 11.487 108.272 0 102.844 0c-7.732 0-14 23.312-14 38.5 0 .858.023 1.667.062 2.439-.776-.9-1.665-1.84-2.68-2.825-10.895-10.581-31.985-22.326-37.372-16.78-3.782 3.895 1.184 15.272 8.246 25.37-11.934-4.264-24.869-6.138-27.65-1.298-3.735 6.503 12.234 22.738 25.215 30.61a47.83 47.83 0 0 0-2.472-.232C37.04 74.75 13.355 79.417 12.829 87.13c-.37 5.415 10.772 10.889 22.687 14.03-11.862 4.46-22.945 11.387-21.939 16.878 1.22 6.663 19.842 8.996 34.484 7.63-10.939 10.495-22.8 29.296-17.85 34.805 3.628 4.038 15.317-.141 25.871-6.5-5.065 11.616-7.816 24.394-3.177 27.497 6.132 4.102 22.948-10.173 31.813-22.456-.903 15.027 2.693 35.67 9.827 36.485 5.393.616 11.368-10.265 15.05-22.024 3.913 12.053 10.33 23.44 15.86 22.685 7.192-.981 10.327-22.142 8.986-37.18 9.145 11.778 24.536 24.374 30.342 20.49 4.64-3.103 1.889-15.88-3.177-27.497 10.555 6.359 22.244 10.538 25.87 6.5 4.95-5.51-6.91-24.31-17.848-34.804 14.641 1.365 33.263-.968 34.483-7.631 1.006-5.49-10.076-12.419-21.938-16.878zm-64.154 42.505c-3.063.418-5.863 1.015-7.993 2.54-2.262-2.247-5.567-2.93-9.24-3.35-4.115-.47-7.853-.516-10.704 1.858-1.043-2.9-3.608-4.959-6.596-6.958-2.57-1.718-5.061-3.129-7.666-3.401-.203-3.181-2.222-5.885-4.694-8.636-1.575-1.754-3.152-3.323-4.901-4.372 2.524-3.073 2.233-6.957 1.452-11.22-.557-3.04-1.281-5.81-2.9-7.868 2.14-2.363 2.673-5.695 2.924-9.384.275-4.029.161-7.681-2.164-10.4 6.009.763 8.909-2.98 11.604-7.672 1.54-2.68 2.778-5.262 2.872-7.88 3.16-.419 5.72-2.617 8.297-5.27 2.2-2.266 4.072-4.51 4.776-7.093 2.521 2.12 5.962 2.44 9.758 2.44 3.698 0 7.059-.305 9.562-2.28 1.943 1.756 4.657 2.667 7.653 3.43 2.86.728 5.558 1.215 8.012.725.896 2.046 2.489 3.905 4.308 5.778 2.576 2.653 5.136 4.851 8.296 5.27.095 2.618 1.333 5.2 2.872 7.88 1.813 3.155 3.716 5.883 6.595 7.1-.336 1.832-.3 3.85-.155 5.972.252 3.69.785 7.021 2.925 9.384-1.62 2.058-2.343 4.828-2.9 7.869-.781 4.262-1.072 8.146 1.452 11.22-1.75 1.048-3.326 2.617-4.902 4.37-2.471 2.752-4.49 5.456-4.694 8.637-2.604.272-5.096 1.683-7.665 3.401-3.51 2.348-6.432 4.78-6.994 8.558-2.633-1.277-5.785-1.112-9.19-.648z" fill="gold"/><circle cx="109.844" cy="99" r="50" fill="#3f3d56"/></g><g><path fill="#3f3d56" d="m569.813 466.297 2-.044 2.15 97.725-2 .044z"/><path d="M570.979 509.655c-.104-.354-2.488-8.779 2.665-17.045l1.697 1.059c-4.665 7.482-2.465 15.347-2.443 15.425l-1.919.561z" fill="#3f3d56"/><path d="M574.41 493.468s-1.535-10.494 12.608-13.374a89.28 89.28 0 0 1 8.256-1.283c2.997-.322 4.166 3.78 1.458 5.106-3.92 1.919-7.61 4.337-9.532 7.2-5.303 7.898-12.79 2.35-12.79 2.35z" fill="gold"/><path d="m573.274 540-1.92-.562c.023-.078 2.223-7.94-2.442-15.423l1.697-1.059c5.153 8.266 2.769 16.69 2.665 17.044z" fill="#3f3d56"/><path d="M569.843 523.813s1.535-10.494-12.608-13.374a89.28 89.28 0 0 0-8.256-1.283c-2.997-.322-4.166 3.78-1.458 5.106 3.92 1.92 7.61 4.337 9.532 7.2 5.303 7.898 12.79 2.35 12.79 2.35zM589.528 452.693c2.847-.75 5.509-2.058 5.42-3.352-.104-1.537-4.057-2.567-7.466-2.724 2.572-2.012 4.935-4.793 4.212-6.051-.664-1.157-3.755-.709-6.606.31 1.687-2.413 2.873-5.131 1.97-6.061-1.126-1.16-5.12.84-7.846 3.052.53-3.445.262-7.793-1.283-8.186-1.292-.329-3.124 2.2-4.38 4.955-.555-2.891-1.679-5.636-2.976-5.636-1.847 0-3.345 5.57-3.345 9.2 0 .204.006.397.015.582-.185-.215-.398-.44-.64-.675-2.604-2.528-7.643-5.335-8.93-4.01-.903.931.283 3.65 1.97 6.062-2.851-1.018-5.942-1.466-6.606-.31-.893 1.554 2.923 5.433 6.025 7.314a11.427 11.427 0 0 0-.591-.055c-3.62-.247-9.28.868-9.406 2.71-.088 1.295 2.574 2.603 5.421 3.353-2.834 1.066-5.482 2.721-5.242 4.033.292 1.592 4.741 2.15 8.24 1.823-2.614 2.508-5.448 7-4.265 8.316.866.965 3.66-.033 6.181-1.553-1.21 2.776-1.867 5.829-.759 6.57 1.465.98 5.483-2.43 7.601-5.365-.215 3.59.644 8.523 2.348 8.717 1.289.148 2.717-2.452 3.596-5.262.935 2.88 2.468 5.6 3.79 5.42 1.718-.234 2.467-5.29 2.147-8.883 2.185 2.814 5.863 5.824 7.25 4.895 1.108-.741.451-3.794-.76-6.57 2.523 1.52 5.316 2.518 6.182 1.554 1.183-1.317-1.65-5.809-4.264-8.317 3.498.327 7.947-.23 8.239-1.823.24-1.312-2.408-2.967-5.242-4.033zm-15.329 10.156c-.732.1-1.4.243-1.91.607-.54-.537-1.33-.7-2.208-.8-.983-.112-1.876-.123-2.557.444-.25-.693-.862-1.185-1.576-1.663-.614-.41-1.21-.747-1.832-.812-.048-.76-.53-1.407-1.121-2.064-.377-.419-.753-.794-1.171-1.044.603-.735.533-1.663.347-2.681-.134-.727-.307-1.389-.693-1.88.511-.565.638-1.361.698-2.243.066-.962.039-1.835-.517-2.485 1.436.183 2.129-.712 2.773-1.833.368-.64.664-1.257.686-1.882.755-.1 1.367-.626 1.982-1.26.526-.541.974-1.077 1.142-1.694.602.506 1.424.583 2.331.583.884 0 1.687-.073 2.285-.545.464.42 1.113.637 1.829.82.683.173 1.328.29 1.914.173.214.488.595.933 1.03 1.38.615.634 1.227 1.16 1.982 1.26.022.625.318 1.242.686 1.882.433.754.888 1.406 1.576 1.697-.08.438-.072.92-.037 1.427.06.881.187 1.677.699 2.242-.387.491-.56 1.153-.693 1.88-.187 1.018-.257 1.946.346 2.68-.418.251-.794.626-1.17 1.045-.591.658-1.074 1.304-1.122 2.064-.623.065-1.218.402-1.832.812-.838.561-1.537 1.143-1.67 2.045-.63-.305-1.383-.266-2.197-.155z" fill="gold"/><circle cx="572.246" cy="452.655" r="11.947" fill="#3f3d56"/></g><g><path d="M372.943 560.684c-5.768 6.91-6.878 15.486-2.48 19.156 4.399 3.67 12.638 1.043 18.407-5.87a22.525 22.525 0 0 0 4.824-9.481l24.068-29.586-11.723-9.488-24.628 28.823a22.527 22.527 0 0 0-8.468 6.446z" fill="#ffb6b6"/><path fill="#e6e6e6" d="m478.127 414.451 8.377 33.18-40.998 65.628-41.854 42.064-13.565-11.255 42.21-52.519 31.994-67.67 13.836-9.428z"/></g><path d="M433.994 359.616c6.323-.016 6.682.027 7.704 0 7.843-.207 9.893-3.293 13.868-3.082 7.095.375-2.269 35.945-6.163 52.39-3.82 16.127 9.088 30.578 10.015 31.587 13.101 14.248 36.114 16.853 40.063 10.786 3.196-4.911-8.131-12.379-5.393-23.113 2.676-10.493 15.035-9.376 18.49-19.26 3.618-10.353-8.54-15.574-16.179-40.834-4.387-14.506-3.61-17.21-7.704-26.194-10.942-24.017-64.574-13.791-58.553 8.474 1.165 4.307-1.935 9.26 3.852 9.246z" fill="#2f2e41"/></svg>