<?xml version="1.0" encoding="UTF-8"?>
<svg data-name="Layer 1" viewBox="0 0 848 727.31" xmlns="http://www.w3.org/2000/svg">
<path transform="translate(-176 -86.347)" d="m827.57 593.05a7.0059 7.0059 0 0 1-6.9801-6.5478l-1.0396-15.874a7.0058 7.0058 0 0 1 6.5328-7.4487l124.36-8.1445a14.96 14.96 0 1 1 1.955 29.855l-124.36 8.1439q-0.23489 0.015-0.46842 0.01526z" fill="#ffd700"/>
<path transform="translate(-176 -86.347)" d="m852.09 595.1a7.0147 7.0147 0 0 1-6.9977-6.7446l-0.88623-23.709a7.0051 7.0051 0 0 1 6.7393-7.2619l102.27-3.8223a7.006 7.006 0 0 1 7.2624 6.7393l0.88623 23.709a7.0051 7.0051 0 0 1-6.7393 7.2619l-102.27 3.8223c-0.08842 0.00368-0.17709 0.00526-0.26472 0.00526z" fill="#2f2e41"/>
<path transform="translate(-176 -86.347)" d="m971.93 813.65h-15.908a7.0136 7.0136 0 0 1-7.0056-7.0056v-132.58a7.0136 7.0136 0 0 1 7.0056-7.0056h15.908a7.0136 7.0136 0 0 1 7.0056 7.0056v132.58a7.0136 7.0136 0 0 1-7.0056 7.0056z" fill="#2f2e41"/>
<path transform="translate(-176 -86.347)" d="m933.93 813.65h-15.908a7.0136 7.0136 0 0 1-7.0056-7.0056v-132.58a7.0136 7.0136 0 0 1 7.0056-7.0056h15.908a7.0136 7.0136 0 0 1 7.0056 7.0056v132.58a7.0136 7.0136 0 0 1-7.0056 7.0056z" fill="#2f2e41"/>
<circle cx="771.77" cy="387.38" r="54.967" fill="#ffd700"/>
<path transform="translate(-176 -86.347)" d="m918.02 492.49a13.036 13.036 0 0 1-4.7605-2.7944 8.7662 8.7662 0 0 1-2.5624-6.9399 5.8972 5.8972 0 0 1 2.6218-4.5386c1.9657-1.2609 4.5947-1.2646 7.2714-0.085l-0.10132-21.458 2.1554-0.01027 0.11924 25.227-1.6609-1.0447c-1.9259-1.2094-4.6764-2.0607-6.6199-0.81377a3.787 3.787 0 0 0-1.6399 2.9304 6.6243 6.6243 0 0 0 1.9053 5.1744c2.3802 2.2736 5.8528 2.9846 9.8129 3.62l-0.34163 2.1281a35.528 35.528 0 0 1-6.1996-1.3944z" fill="#2f2e41"/>
<rect transform="matrix(.13093 -.99139 .99139 .13093 156.05 1207.3)" x="902.8" y="451.62" width="2.1553" height="11.61" fill="#2f2e41"/>
<rect transform="translate(182.87 1247.5) rotate(-82.477)" x="939.13" y="456.41" width="2.1553" height="11.61" fill="#2f2e41"/>
<path transform="translate(-176 -86.347)" d="m983.62 709.64h-82.635a9.1774 9.1774 0 0 1-8.8945-6.9623 8.998 8.998 0 0 1-0.12052-3.32s16.141-90.643 24.126-134.18a27.575 27.575 0 0 1 27.128-22.599h8e-5a59.612 59.612 0 0 1 59.612 59.612v88.229a19.216 19.216 0 0 1-19.216 19.216z" fill="#2f2e41"/>
<path transform="translate(-176 -86.347)" d="m967.68 697.66a7.0169 7.0169 0 0 1-6.5651 3.8753l-15.894-0.66973a7.005 7.005 0 0 1-6.7043-7.2943l5.2453-124.52a14.959 14.959 0 1 1 29.892 1.2592l-5.2447 124.52a6.9667 6.9667 0 0 1-0.72917 2.8295z" fill="#ffd700"/>
<path transform="translate(-176 -86.347)" d="m975.82 664.64a7.0165 7.0165 0 0 1-6.565 3.8751l-27.147-1.1437a7.0136 7.0136 0 0 1-6.7043-7.2943l4.3073-102.25a7.0051 7.0051 0 0 1 7.2942-6.7046l27.147 1.1434a7.0051 7.0051 0 0 1 6.7043 7.2943l-4.3068 102.25a6.9752 6.9752 0 0 1-0.72918 2.8295z" fill="#2f2e41"/>
<path transform="translate(-176 -86.347)" d="m944.72 438.02c-11.857 4.6756-29.772 9.6457-37.589-4.2355a22.686 22.686 0 0 1-1.2864-18.638c2.3607-6.549 7.383-11.944 13.106-15.757 10.721-7.1417 24.285-9.0859 36.77-6.3257a50.165 50.165 0 0 1 17.547 7.5411c6.0396 4.1402 10.292 9.729 14.566 15.578 4.3696 5.9796 9.3175 12.011 16.499 14.63 5.8713 2.1419 13.233 1.0485 17.387-3.9354a12.177 12.177 0 0 0 2.194-3.9354c0.62333-1.8317-2.2733-2.618-2.8928-0.79752-2.1828 6.4143-10.218 7.8518-15.891 5.7755-7.4891-2.741-12.22-9.8621-16.711-16.01-4.2938-5.8774-9.0411-11.052-15.243-14.95a52.93 52.93 0 0 0-18.205-7.1074c-12.998-2.4727-26.997-0.28121-38.013 7.2699a36.719 36.719 0 0 0-13.669 16.337 25.894 25.894 0 0 0 0.1787 19.644 20.849 20.849 0 0 0 15.097 12.303c7.2636 1.4719 14.81-0.22151 21.705-2.5554 1.7665-0.598 3.5124-1.2542 5.2472-1.9383 1.7754-0.70013 1.002-3.6025-0.79752-2.8928z" fill="#2f2e41"/>
<path transform="translate(-176 -86.347)" d="m224.13 86.347h376.32a48.179 48.179 0 0 1 48.125 48.125v205.88a48.179 48.179 0 0 1-48.125 48.125h-376.32a48.179 48.179 0 0 1-48.125-48.125v-205.88a48.179 48.179 0 0 1 48.125-48.125z" fill="#f2f2f2"/>
<path transform="translate(-176 -86.347)" d="m224.13 100.2h376.32a34.309 34.309 0 0 1 34.271 34.271v205.88a34.309 34.309 0 0 1-34.271 34.271h-376.32a34.309 34.309 0 0 1-34.27-34.271v-205.88a34.309 34.309 0 0 1 34.27-34.271z" fill="#fff"/>
<path transform="translate(-176 -86.347)" d="m227.8 462.18a8.63 8.63 0 0 1-3.3069-0.66895 8.3678 8.3678 0 0 1-5.2471-7.8525v-71.17l94.883-3.1924-80.372 80.373a8.3827 8.3827 0 0 1-5.9563 2.5112z" fill="#f2f2f2"/>
<rect x="73.826" y="65.063" width="324" height="41.028" rx="20.514" fill="#f2f2f2"/>
<rect x="74.284" y="130.55" width="324" height="41.028" rx="20.514" fill="#f2f2f2"/>
<rect x="74.743" y="196.04" width="324" height="41.028" rx="20.514" fill="#f2f2f2"/>
<path transform="translate(-176 -86.347)" d="m818.36 191.35h-376.32a48.179 48.179 0 0 0-48.125 48.125v205.88a48.179 48.179 0 0 0 48.125 48.125h376.32a48.179 48.179 0 0 0 48.125-48.125v-205.88a48.179 48.179 0 0 0-48.125-48.125z" fill="#e6e6e6"/>
<path transform="translate(-176 -86.347)" d="m818.36 205.2h-376.32a34.309 34.309 0 0 0-34.271 34.271v205.88a34.309 34.309 0 0 0 34.271 34.271h376.32a34.309 34.309 0 0 0 34.271-34.271v-205.88a34.309 34.309 0 0 0-34.271-34.271z" fill="#fff"/>
<path transform="translate(-176 -86.347)" d="m789.73 564.67-80.372-80.373 94.883 3.1924v71.17a8.3678 8.3678 0 0 1-5.2471 7.8525 8.6301 8.6301 0 0 1-3.3069 0.66895 8.3827 8.3827 0 0 1-5.9563-2.5112z" fill="#e6e6e6"/>
<circle cx="371.2" cy="256.06" r="26" fill="#ffd700"/>
<circle cx="454.2" cy="256.06" r="26" fill="#ffd700"/>
<circle cx="537.2" cy="256.06" r="26" fill="#ffd700"/>
</svg>
