<svg xmlns="http://www.w3.org/2000/svg" data-name="Layer 1" width="765.6" height="667.744"><path d="M713.462 666.985v-72.34s28.192 51.286 0 72.34z" fill="#f1f1f1"/><path d="m715.203 666.972-53.29-48.921s56.846 13.915 53.29 48.921z" fill="#f1f1f1"/><path d="M270.217 128.781h-2.978v-81.57A47.21 47.21 0 0 0 220.03 0H47.21A47.21 47.21 0 0 0 0 47.21v447.502a47.21 47.21 0 0 0 47.21 47.21h172.818a47.21 47.21 0 0 0 47.211-47.21V186.844h2.978z" fill="#3f3d56"/><path d="M221.934 12.283h-22.559a16.75 16.75 0 0 1-15.508 23.076H84.86a16.75 16.75 0 0 1-15.508-23.076h-21.07a35.256 35.256 0 0 0-35.256 35.256v446.845a35.256 35.256 0 0 0 35.256 35.256h173.65a35.256 35.256 0 0 0 35.257-35.256V47.539a35.256 35.256 0 0 0-35.256-35.256z" fill="#fff"/><circle data-name="Ellipse 44" cx="135.108" cy="261.234" r="84.446" fill="#0033a0"/><path d="m160.132 267.004-21 21.63a4.774 4.774 0 0 1-3.5 1.41h-.07a4.814 4.814 0 0 1-3.51-1.41l-20.99-21.63c-.07-.08-.15-.15-.22-.22a4.641 4.641 0 0 1 .22-6.55 5.169 5.169 0 0 1 7.08 0l12.44 13v-33.52a5.02 5.02 0 0 1 10.03 0v33.52l12.43-13a5.181 5.181 0 0 1 7.09 0l.22.22a4.65 4.65 0 0 1-.22 6.55z" fill="#fff"/><path fill="#9f616a" d="m590.258 653.281-12.26-.001-5.832-47.288 18.094.001-.002 47.288z"/><path d="m593.384 665.165-39.53-.001v-.5a15.387 15.387 0 0 1 15.386-15.387h.001l24.144.001z" fill="#2f2e41"/><path fill="#9f616a" d="m497.121 652.877-11.844-3.167 6.58-47.19 17.48 4.674-12.216 45.683z"/><path d="m497.072 665.165-38.19-10.212.13-.483a15.387 15.387 0 0 1 18.839-10.89l23.325 6.237zM597.311 388.269l10.269 11.93-13.281 242.443h-28.368l-14.303-186.551-44.346 191.554-29.492-7.233 26.816-243.299 92.705-8.844z" fill="#2f2e41"/><path d="m511.462 231.744 28.246-14.167 43.437.763 37.38 19.128-21.268 106.213 9.187 55.38a226.532 226.532 0 0 1-108.335.891l-.284-.067s21.113-74.917 12.125-97.779z" fill="#cbcbcb"/><path d="M593.177 175.136a32.002 32.002 0 1 0 0 .237v-.237z" fill="#9f616a"/><path d="M546.845 156.85a9.08 9.08 0 0 1 6.117-2.468c3.419-.11 8.542 1.103 10.722 3.883 1.752 2.234 1.836 5.307 1.843 8.146l.018 7.836c.006 2.318.034 4.736 1.087 6.8s3.47 3.635 5.68 2.93c2.62-.835 3.772-4.317 6.45-4.943 2.01-.47 4.076 1 4.955 2.868a12.44 12.44 0 0 1 .716 6.086c-.253 4.103-6.138 5.73-6.971 9.756-.482 2.329-2.17 6.974 0 6 10-1 14.39-6.84 18.966-12.34l10.323-12.4a12.121 12.121 0 0 0 2.658-4.303 11.95 11.95 0 0 0 .273-3.43q-.084-4.624-.25-9.245c-.098-2.691-.775-6.087-3.411-6.64-1.371-.288-3.186.214-3.91-.985a2.72 2.72 0 0 1-.124-1.911c.581-3.076 1.563-6.294.55-9.257-1.526-4.468-6.784-6.301-11.43-7.144s-9.862-1.568-12.778-5.282a40.5 40.5 0 0 0-2.536-3.565 9.956 9.956 0 0 0-4.755-2.398 26.279 26.279 0 0 0-17.28 1.533c-2.247 1.026-4.505 2.407-6.97 2.25-2.56-.162-4.748-1.964-7.276-2.402-4.084-.709-7.988 2.351-10 5.974-2.494 4.49-2.723 10.638.8 14.375 1.757 1.864 4.38 3.145 5.109 5.601.297 1 .228 2.077.49 3.086a5.57 5.57 0 0 0 4.49 3.883c2.497.407 4.61-.737 6.444-2.294z" fill="#2f2e41"/><path d="M507.563 309.185a11.462 11.462 0 0 0 16.65 5.627l57.354 30.318 1.857-13.972-55.73-32.862a11.524 11.524 0 0 0-20.13 10.889z" fill="#9f616a"/><path d="M583.992 311.6a11.462 11.462 0 0 1-17.478 1.848l-62.597 17.035.545-17.739 62.27-16.173a11.524 11.524 0 0 1 17.26 15.03z" fill="#9f616a"/><path d="m608.32 238.232 12.204-.764s14.29 18.855 6.364 39.315c0 0 1.373 73.5-30.276 70.48s-41.65-3.019-41.65-3.019l9.5-26.5 21.253-6.562s-6.55-28.894 5.848-40.916zM520.187 237.587l-1.725-8.843s-25.44-.598-30.47 37.951c0 0-22.877 57.693-.453 65.12s47.088 0 47.088 0l-1.858-25.441-24.672-5.035s12.745-16.49 5.805-30.792zM764.6 667.744h-381a1 1 0 0 1 0-2h381a1 1 0 0 1 0 2z" fill="#cbcbcb"/></svg>