<?xml version="1.0" encoding="UTF-8"?>
<svg data-name="Layer 1" viewBox="0 0 1058 434.75" xmlns="http://www.w3.org/2000/svg">
<polygon points="643.46 221.72 705.39 159.98 643.46 98.233 662.34 79.414 743.15 159.98 662.34 240.54 643.46 221.72" fill="#e6e6e6" style="isolation:isolate"/>
<rect x="466.6" y="135.21" width="25.176" height="25.176" fill="#e6e6e6" style="isolation:isolate"/>
<rect x="567.8" y="135.21" width="25.176" height="25.176" fill="#e6e6e6" style="isolation:isolate"/>
<rect x="517.2" y="135.21" width="25.176" height="25.176" fill="#e6e6e6" style="isolation:isolate"/>
<polygon points="432.48 221.09 370.49 159.35 432.42 97.604 413.54 78.785 332.78 159.35 413.6 239.91" fill="#e6e6e6" style="isolation:isolate"/>
<polygon points="643.46 209.76 705.39 148.02 643.46 86.274 662.34 67.455 743.15 148.02 662.34 228.58 643.46 209.76" fill="#ffd700"/>
<path transform="translate(-71 -232.63)" d="m537.6 385.05h25.176v-25.176h-25.176zm126.38-25.176h-25.176v25.176h25.176zm-75.78 25.176h25.176v-25.176h-25.176z" fill="#ffd700"/>
<polygon points="432.48 209.13 370.49 147.39 432.42 85.645 413.54 66.826 332.78 147.39 413.6 227.95" fill="#ffd700"/>
<polygon points="129.3 410.45 143.4 413.86 163.25 361.12 142.45 356.09" fill="#a0616a"/>
<path transform="translate(-71 -232.63)" d="m193.63 655.73 4.3279-17.902 27.574 6.6662a18.032 18.032 0 0 1 13.275 21.74l-0.09544 0.394z" fill="#2f2e41"/>
<polygon points="191.7 420.05 206.2 420.05 213.09 364.12 191.69 364.12" fill="#a0616a"/>
<path transform="translate(-71 -232.63)" d="m259.18 648.13 28.369-0.00118h7.9e-4a18.012 18.012 0 0 1 18.012 18.011v0.40553l-46.381 2e-3z" fill="#2f2e41"/>
<path transform="translate(-71 -232.63)" d="m259.29 633.32 2.3839-87.007-3.2111-35.281-6.2657 27.151-27.379 89.285-23.603-6.2114 27.336-96.27-5.9371-61.748 17.058-10.965 0.23013 0.04158 58.279 10.742-14.078 167.78z" fill="#2f2e41"/>
<path transform="translate(-71 -232.63)" d="m282.36 475.17c-4.6932 0-10.182-1.5118-16.292-5.8245-19.551-13.798-42.863 1.0452-43.096 1.1954l-0.9465 0.6156 0.03321-1.1284c0.02367-0.80386 2.3651-80.712 2.3651-106.42 0-26.565 17.332-45.962 22.644-51.274 5.2138-5.2147 9.601-5.0992 15.155-4.9548 0.95689 0.02426 1.9545 0.05082 3.0038 0.05082 7.2576 0 14.314 6.9726 14.61 7.2694l0.14177 0.14206 0.02628 0.19866 20.139 151.63-0.15419 0.19519c-0.09326 0.11896-6.7063 8.3077-17.629 8.3077z" fill="#ccc"/>
<circle transform="translate(-167.8 143) rotate(-61.337)" cx="268.31" cy="269.43" r="29.048" fill="#a0616a"/>
<path transform="translate(-71 -232.63)" d="m312.78 499.45a11.893 11.893 0 0 1-0.69-18.223l-16.496-38.911 21.599 3.9753 12.354 36.341a11.957 11.957 0 0 1-16.767 16.818z" fill="#a0616a"/>
<path transform="translate(-71 -232.63)" d="m308.1 477.3-29.807-60.807-13.07-45.766 0.0104-39.758c0.02945-0.15708 3.102-15.622 14.49-14.553 10.327 1.0002 15.888 6.0497 18.597 16.884 2.301 9.204-0.846 36.51-1.1506 39.086 1.9981 4.7377 31.976 76.164 27.013 84.766a2.1841 2.1841 0 0 1-0.78451 0.8131l5.312 11.215z" fill="#ccc"/>
<path transform="translate(-71 -232.63)" d="m264.59 280.37c3.4821 0.45308 6.1088-3.1097 7.3271-6.4031s2.1465-7.1276 5.174-8.9066c4.1362-2.4305 9.4282 0.49275 14.158-0.30915 5.3416-0.90559 8.8146-6.5666 9.0868-11.978s-1.8811-10.615-3.9939-15.604l-0.7376 6.2a12.295 12.295 0 0 0-5.3728-10.747l0.9507 9.0975a9.6557 9.6557 0 0 0-11.108-7.9897l0.14973 5.4206c-6.1695-0.73362-12.393-1.4683-18.581-0.90936s-12.419 2.5167-17.109 6.5918c-7.0152 6.0957-9.5773 16.133-8.7172 25.387s4.6801 17.947 8.6613 26.345c1.0017 2.1129 2.3872 4.4971 4.7099 4.7663 2.087 0.24183 3.9967-1.5028 4.6454-3.5011a12.69 12.69 0 0 0-0.05633-6.234c-0.587-3.1191-1.3269-6.3072-0.775-9.4327s2.8003-6.2141 5.951-6.5971 6.3745 3.2183 4.8598 6.0074z" fill="#2f2e41"/>
<path transform="translate(-71 -232.63)" d="m983.59 495.58a10.056 10.056 0 0 1 2.3586-15.238l-7.4341-34.953 17.29 6.7743 4.4088 32.153a10.11 10.11 0 0 1-16.623 11.263z" fill="#ffb8b8"/>
<path transform="translate(-71 -232.63)" d="m981.63 468.31-0.09277-0.34339c-9.3467-34.571-19.008-70.308-30.804-109.22l-0.07738-0.2549 0.26022-0.15181c6.5746-3.8365 16.457-3.581 22.986 0.59367a17.15 17.15 0 0 1 7.4436 18.191l8.6032 44.857c3.4977 14.663 7.1176 29.84 10.577 44.806l0.09811 0.42426-0.53579 0.03421c-6.2993 0.40058-12.807 0.81488-18.021 1.0436z" fill="#ccc"/>
<polygon points="831.19 421.74 818.93 421.74 813.1 374.46 831.19 374.46" fill="#ffb8b8"/>
<path transform="translate(-71 -232.63)" d="m905.32 666.26h-39.531v-0.5a15.404 15.404 0 0 1 15.387-15.387h24.144z" fill="#2f2e41"/>
<polygon points="946.72 411.63 935.04 415.35 915.12 372.07 932.36 366.58" fill="#ffb8b8"/>
<path transform="translate(-71 -232.63)" d="m986.64 666.63-0.15162-0.47657a15.404 15.404 0 0 1 9.989-19.332l23.004-7.3301 4.8232 15.137z" fill="#2f2e41"/>
<circle cx="884.67" cy="69.876" r="24.561" fill="#ffb8b8"/>
<path transform="translate(-71 -232.63)" d="m966.69 297.95c0.1396-9.9063-4.0063-19.717-10.417-24.65a16.649 16.649 0 0 0-21.132 0.37344c-6.311 5.1575-10.263 15.112-9.9282 25.009 14.141 0.04024 28.281 0.08044 41.477-0.73297z" fill="#2f2e41"/>
<path transform="translate(-71 -232.63)" d="m909.19 639.15-0.4917-0.04785c-10.666-1.0469-21.695-2.1279-32.118-2.252l-0.56689-0.00683 0.07739-0.56153c2.4695-17.886 3.5164-36.479 4.5288-54.462 0.99976-17.756 2.0332-36.116 4.4409-53.553 1.0186-4.6694 2.0112-9.2832 3.0005-13.88 8.1855-38.043 15.917-73.977 31.877-109.55l0.15088-0.33594 0.36548 0.04395c14.974 1.812 29.363 7.2754 40.515 15.383l0.21607 0.15674-0.0105 0.26709c-0.21509 5.5249-0.43774 11.236-0.10815 16.439a55.797 55.797 0 0 1 7.9538 49.283c4.3911 14.675 8.9309 29.845 13.563 44.81 11.249 30.838 22.888 62.751 34.82 95.101l0.1958 0.53027-0.55054 0.12891c-8.5847 2.0156-17.44 4.0938-26.177 4.9004l-0.32983 0.03027-0.15674-0.292a712.85 712.85 0 0 1-54.089-130.06c-2.9814 9.0923-7.2764 17.299-11.437 25.249a189.02 189.02 0 0 0-10.482 22.402c-1.8416 15.121-2.3301 31.504-2.802 47.347-0.44653 14.979-0.86816 29.128-2.3313 42.432z" fill="#2f2e41"/>
<path transform="translate(-71 -232.63)" d="m947.28 273.76c10.646-2.2937 22.422-0.11154 30.783 7.0714s12.606 19.609 9.1717 30.266-15.096 18.155-25.64 15.403c3.0203-8.5123-0.37868-18.963-7.7621-23.867-8.7561-5.8148-11.167-19.697-6.5527-28.874z" fill="#2f2e41"/>
<path transform="translate(-71 -232.63)" d="m960.21 421-0.38941-0.17725c-13.581-6.1963-26.898-10.951-39.376-15.289l-0.38257-0.08252-1e-3 -1.1094 0.24829 0.08643c0.05224-0.11523 0.11108-0.24609 0.17016-0.37646 0.17041-0.377 0.28662-0.63379 0.3855-0.80372l-0.00268-0.00146c1.0403-2.1196 1.8672-4.168 2.6667-6.1489 0.8252-2.0444 1.677-4.1553 2.7776-6.3887a19.356 19.356 0 0 1-4.2764-20.829c2.7564-6.5327 9.7842-11.621 17.168-12.465 2.7058-7.4487 8.7349-23.1 8.7349-23.1s12.678-0.34815 17.777-0.99512l0.08569-0.01074 0.08423 0.01855c11.131 2.439 20.424 12.972 22.598 25.614 1.8354 10.67-0.95166 22.875-7.8474 34.366a148.04 148.04 0 0 1-11.709 16.089c-3.106 3.8838-6.0396 7.5518-8.4761 11.246z" fill="#ccc"/>
<path transform="translate(-71 -232.63)" d="m984.29 290.49z" fill="#2f2e41"/>
<path transform="translate(-71 -232.63)" d="m984.79 288.31c-7.4525-1.1124-13.304-8.7305-12.457-16.218s8.2526-13.605 15.765-13.025 13.89 7.7644 13.576 15.293-7.3695 15.37-16.885 13.95z" fill="#2f2e41"/>
<path transform="translate(-71 -232.63)" d="m983.63 283.46c-7.4524-1.1124-13.304-8.7305-12.457-16.218a15.241 15.241 0 0 1 8.8818-11.734c-6.01 1.3154-11.182 6.5525-11.882 12.734-0.84717 7.4872 5.0042 15.105 12.457 16.218a14.208 14.208 0 0 0 8.1719-1.1429 14.504 14.504 0 0 1-5.1719 0.14294z" fill="#2f2e41"/>
<path transform="translate(-71 -232.63)" d="m839.07 415.43a10.056 10.056 0 0 1 15.153-2.8532l30.479-18.655-0.6265 18.559-28.847 14.87a10.11 10.11 0 0 1-16.158-11.921z" fill="#ffb8b8"/>
<path transform="translate(-71 -232.63)" d="m864.13 404.5 0.29286-0.20188c29.481-20.331 59.957-41.348 92.715-65.434l0.21456-0.15789 0.22983 0.19477c5.8079 4.9207 8.8595 14.323 7.0989 21.87a17.15 17.15 0 0 1-14.672 13.079l-39.428 23.057c-12.66 8.1834-25.764 16.653-38.722 24.902l-0.36733 0.23385-0.21077-0.49378c-2.4765-5.8059-5.0356-11.804-6.9884-16.644z" fill="#ccc"/>
<path transform="translate(-71 -232.63)" d="m453 667.37h-381a1 1 0 0 1 0-2h381a1 1 0 1 1 0 2z" fill="#3f3d56"/>
<path transform="translate(-71 -232.63)" d="m1128 667.37h-381a1 1 0 0 1 0-2h381a1 1 0 0 1 0 2z" fill="#3f3d56"/>
</svg>
