<?xml version="1.0" encoding="UTF-8"?>
<svg viewBox="0 0 598.25 581.5" xmlns="http://www.w3.org/2000/svg">
<path d="m317.38 441.36c-8.8967 1.3636-15.405 7.0594-14.536 12.721 0.86876 5.6618 8.7843 9.1446 17.684 7.7793 3.5626-0.49662 6.9544-1.8392 9.8917-3.9154l37.623-6.2538-2.511-14.872-37.538 5.3118c-3.4255-1.1011-7.065-1.3657-10.614-0.77157z" fill="#ffb6b6"/>
<polygon points="479.5 395.01 464.91 425.96 391.57 450.65 330.72 453.9 329.2 439.28 395.15 425.49 462.82 393.51" fill="#e6e6e6"/>
<rect transform="translate(-9.1013 7.0098) rotate(-1.2607)" x="313.02" y="330.24" width="2.0005" height="173.78" fill="#3f3d56"/>
<path d="m313.15 407.17c-0.18115-0.61621-4.3272-15.269 4.6509-29.671l1.6973 1.0586c-8.4898 13.618-4.4702 27.907-4.4287 28.051l-1.9194 0.56152z" fill="#3f3d56"/>
<path d="m318.51 378.61s-2.7294-18.655 22.414-23.775c5.2382-1.0666 10.163-1.7956 14.677-2.2813 5.3285-0.57333 7.407 6.7208 2.5934 9.0768-6.9712 3.412-13.529 7.7108-16.947 12.802-9.4268 14.04-22.738 4.1778-22.738 4.1778z" fill="#ffd700"/>
<path d="m315.74 461.12-1.9194-0.56152c0.0415-0.14355 4.061-14.433-4.4287-28.051l1.6973-1.0586c8.978 14.402 4.832 29.055 4.6509 29.671z" fill="#3f3d56"/>
<path d="m310.39 432.56s2.7294-18.655-22.414-23.775c-5.2382-1.0666-10.163-1.7956-14.677-2.2813-5.3285-0.57333-7.407 6.7208-2.5934 9.0768 6.9712 3.412 13.529 7.7108 16.947 12.802 9.4268 14.04 22.738 4.1778 22.738 4.1778z" fill="#ffd700"/>
<path d="m345.38 306.12c5.0611-1.3344 9.7938-3.6596 9.6369-5.9598-0.18646-2.7325-7.2129-4.5634-13.275-4.842 4.5722-3.577 8.7732-8.5217 7.4885-10.758-1.1811-2.0559-6.6755-1.2596-11.745 0.5512 3-4.289 5.1091-9.1219 3.5028-10.776-2.0009-2.0603-9.1022 1.4958-13.948 5.4265 0.94344-6.1237 0.46649-13.853-2.2801-14.553-2.2978-0.58506-5.5543 3.9114-7.7871 8.8095-0.98679-5.1402-2.9844-10.02-5.29-10.02-3.2844 0-5.9469 9.9025-5.9469 16.354 0 0.36468 0.00967 0.70797 0.02632 1.036-0.32965-0.38218-0.70745-0.78145-1.1383-1.1999-4.6282-4.4947-13.587-9.4836-15.875-7.1274-1.6062 1.654 0.50287 6.4869 3.5028 10.776-5.0693-1.8108-10.564-2.6071-11.745-0.5512-1.587 2.7625 5.1966 9.6586 10.711 13.003-0.33147-0.03993-0.67971-0.07355-1.0503-0.09883-6.4365-0.43917-16.497 1.5431-16.721 4.8198-0.15696 2.3002 4.5758 4.6254 9.6369 5.9598-5.0388 1.8941-9.7464 4.8371-9.3191 7.1693 0.51858 2.8306 8.4285 3.8215 14.648 3.2415-4.6463 4.4579-9.6845 12.444-7.5819 14.784 1.5408 1.7151 6.5061-0.06012 10.989-2.7611-2.1517 4.9343-3.3202 10.362-1.3494 11.68 2.6045 1.7422 9.7474-4.3215 13.513-9.539-0.38374 6.3831 1.1436 15.152 4.1741 15.498 2.2907 0.2616 4.8291-4.3603 6.3927-9.3554 1.6626 5.1198 4.388 9.9567 6.7372 9.6361 3.0549-0.41687 4.3867-9.4055 3.8168-15.793 3.8847 5.0029 10.422 10.353 12.889 8.7036 1.9708-1.3183 0.80222-6.7458-1.3494-11.68 4.4832 2.701 9.4486 4.4762 10.989 2.7611 2.1026-2.3405-2.9356-10.326-7.5819-14.784 6.2194 0.58 14.129-0.41088 14.648-3.2415 0.42729-2.3322-4.2804-5.2752-9.3191-7.1693zm-27.251 18.055c-1.3009 0.17752-2.4905 0.43103-3.3951 1.0784-0.96104-0.95404-2.3647-1.2446-3.9254-1.4228-1.7475-0.19956-3.3355-0.21882-4.5465 0.78962-0.44311-1.2316-1.5327-2.1066-2.8019-2.9556-1.0914-0.73004-2.1497-1.3293-3.2561-1.4448-0.08644-1.3514-0.94416-2.4999-1.9939-3.6685-0.66934-0.7451-1.339-1.4112-2.0821-1.8568 1.0721-1.3054 0.94852-2.9553 0.61679-4.766-0.2366-1.2915-0.54407-2.4683-1.232-3.3425 0.90927-1.0035 1.1356-2.419 1.2425-3.9862 0.11675-1.7112 0.06824-3.2627-0.91948-4.418 2.5525 0.32468 3.7844-1.2655 4.9293-3.2585 0.65405-1.1385 1.1799-2.2352 1.2199-3.3469 1.3424-0.17824 2.4298-1.1122 3.5242-2.239 0.93486-0.96262 1.7301-1.9158 2.0288-3.0128 1.0712 0.90022 2.5328 1.0365 4.1453 1.0365 1.5708 0 2.9984-0.12942 4.0615-0.96827 0.82534 0.7458 1.9784 1.1326 3.2508 1.4566 1.2146 0.30928 2.3612 0.51612 3.4036 0.30795 0.38052 0.86931 1.0571 1.6587 1.8298 2.4544 1.0944 1.1269 2.1818 2.0608 3.5242 2.239 0.03998 1.1117 0.56582 2.2084 1.2199 3.3469 0.76989 1.3401 1.5785 2.4989 2.8015 3.0159-0.1428 0.77844-0.12753 1.6353-0.06603 2.5367 0.10695 1.5672 0.33326 2.9827 1.2425 3.9862-0.68791 0.87419-0.99537 2.051-1.232 3.3425-0.33173 1.8107-0.45535 3.4606 0.61679 4.766-0.7431 0.44557-1.4128 1.1117-2.0821 1.8568-1.0498 1.1686-1.9075 2.3171-1.9939 3.6685-1.1064 0.11555-2.1648 0.71482-3.2561 1.4448-1.4906 0.99708-2.7322 2.0306-2.9706 3.6352-1.1185-0.54256-2.4575-0.47248-3.9039-0.27513z" fill="#ffd700"/>
<circle cx="314.66" cy="306.05" r="21.239" fill="#3f3d56"/>
<path d="m58.509 563.6c0 0.66003 0.53003 1.19 1.1901 1.19h522.29c0.65997 0 1.19-0.52997 1.19-1.19 0-0.65997-0.53003-1.19-1.19-1.19h-522.29c-0.66003 0-1.1901 0.53003-1.1901 1.19z" fill="#3f3d56"/>
<polygon points="344.24 512.55 331.14 545.67 314.19 534.12 324.21 499.45" fill="#ffb6b6"/>
<polygon points="289.54 500.22 254.87 533.35 268.74 547.99 304.18 520.25" fill="#ffb6b6"/>
<polygon points="486 392.36 485.61 389.66 476.75 372.33 447.48 380.03 452.87 403.92" fill="#ffb6b6"/>
<path d="m473.67 507.92 0.90036 11.572s3.7222 48.522-26.325 52.374-43.144 7.7043-60.864-22.342l-27.735-49.308-16.2 19.276-21.551-16.965s15.409-60.094 27.735-62.405c1.5409-0.28891 3.0817-0.43337 4.5985-0.46497 10.205-0.21261 19.825 4.779 25.931 12.959l34.957 46.829 12.712-5.7782 45.841 14.253z" fill="#2f2e41"/>
<path d="m307.26 544.13 6.9339-13.097 20.031 13.868s4.6226 16.949-2.3113 19.261-26.195-0.77043-26.195-0.77043-35.44 7.7043-36.21 0.77043 16.179-8.4747 16.179-8.4747l21.572-11.556z" fill="#2f2e41"/>
<path d="m382.76 534.89-53.545-33.738-27.35 24.493-18.49-21.572s33.899-50.078 43.915-52.389 26.195-3.8522 26.195-3.8522l49.308 45.455-20.031 41.603z" fill="#2f2e41"/>
<path d="m254.1 530.27 17.72 19.261-2.3368 1.9989s-4.5971 20.022-15.383 13.249-11.556-8.314-11.556-8.314-30.817 6.9339-33.899-5.393c-3.0817-12.327 5.393-10.016 5.393-10.016l7.6952 4.6226 32.367-15.409z" fill="#2f2e41"/>
<circle cx="456.72" cy="363.85" r="24.654" fill="#ffb6b6"/>
<path d="m450.94 398.91 35.44-10.786s13.868 32.358 11.556 46.996c-2.3113 14.638-23.368 84.377-23.368 84.377l-46.741-25.825s-0.77043-15.409-3.0817-22.342-9.6304-28.121 6.5487-45.841 19.646-26.58 19.646-26.58z" fill="#e6e6e6"/>
<rect transform="translate(-7.9046 2.4708) rotate(-1.2606)" x="107.34" y="155.95" width="1.9995" height="409.1" fill="#3f3d56"/>
<path d="m107.6 336.66c-0.10254-0.34961-10.018-35.358 10.799-68.751l1.6973 1.0581c-20.348 32.642-10.678 66.789-10.578 67.131l-1.919 0.5625z" fill="#3f3d56"/>
<path d="m118.9 269.81s-6.4254-43.917 52.767-55.97c12.332-2.511 23.925-4.2272 34.552-5.3706 12.544-1.3497 17.437 15.822 6.1052 21.368-16.411 8.0324-31.849 18.153-39.896 30.137-22.192 33.053-53.528 9.8353-53.528 9.8353z" fill="#ffd700"/>
<path d="m111.09 463.66-1.919-0.5625c0.09961-0.34082 9.7515-34.521-10.578-67.131l1.6973-1.0586c20.817 33.394 10.902 68.402 10.799 68.752z" fill="#3f3d56"/>
<path d="m99.788 396.81s6.4254-43.917-52.767-55.97c-12.332-2.511-23.925-4.2272-34.552-5.3706-12.544-1.3497-17.437 15.822-6.1052 21.368 16.411 8.0324 31.849 18.153 39.896 30.137 22.192 33.053 53.528 9.8353 53.528 9.8353z" fill="#ffd700"/>
<path d="m182.17 99.161c11.915-3.1415 23.056-8.6154 22.687-14.03-0.43896-6.4328-16.98-10.743-31.251-11.399 10.764-8.4208 20.654-20.061 17.629-25.326-2.7805-4.84-15.715-2.9652-27.649 1.2976 7.0624-10.097 12.028-21.475 8.2462-25.368-4.7104-4.8502-21.428 3.5213-32.837 12.775 2.221-14.416 1.0982-32.613-5.3677-34.26-5.4093-1.3773-13.076 9.2081-18.332 20.739-2.3231-12.101-7.0259-23.589-12.454-23.589-7.732 0-14 23.312-14 38.5 0 0.85852 0.02277 1.6667 0.06195 2.4388-0.77606-0.89972-1.6655-1.8397-2.6798-2.8247-10.895-10.581-31.986-22.326-37.373-16.779-3.7814 3.8937 1.1838 15.271 8.2462 25.368-11.934-4.2628-24.869-6.1376-27.649-1.2976-3.7361 6.5034 12.234 22.738 25.215 30.611-0.78033-0.09399-1.6002-0.17316-2.4727-0.23267-15.153-1.0339-38.837 3.6326-39.364 11.347-0.36951 5.4151 10.772 10.889 22.687 14.03-11.862 4.459-22.945 11.387-21.939 16.878 1.2208 6.6637 19.842 8.9964 34.484 7.631-10.938 10.495-22.799 29.295-17.849 34.805 3.6273 4.0377 15.316-0.14154 25.871-6.5002-5.0654 11.616-7.8164 24.393-3.1768 27.497 6.1314 4.1015 22.947-10.173 31.813-22.456-0.90338 15.027 2.6922 35.671 9.8265 36.486 5.3926 0.61584 11.369-10.265 15.05-22.024 3.914 12.053 10.33 23.44 15.861 22.685 7.1916-0.98138 10.327-22.142 8.9855-37.18 9.1452 11.778 24.536 24.374 30.342 20.49 4.6396-3.1036 1.8886-15.881-3.1768-27.497 10.554 6.3586 22.243 10.538 25.871 6.5002 4.9498-5.5098-6.9108-24.31-17.849-34.805 14.641 1.3654 33.263-0.96729 34.484-7.631 1.0059-5.4905-10.077-12.419-21.939-16.878zm-64.154 42.505c-3.0626 0.41791-5.863 1.0147-7.9927 2.5387-2.2624-2.246-5.5669-2.93-9.241-3.3496-4.1139-0.46979-7.8524-0.51514-10.703 1.8589-1.0432-2.8995-3.6082-4.9593-6.5962-6.9581-2.5692-1.7186-5.0608-3.1294-7.6654-3.4014-0.20349-3.1814-2.2227-5.8852-4.694-8.6362-1.5757-1.7541-3.1523-3.3223-4.9017-4.3713 2.524-3.0731 2.233-6.9573 1.452-11.22-0.55701-3.0404-1.2808-5.8107-2.9003-7.8687 2.1406-2.3625 2.6733-5.6947 2.9251-9.3841 0.27484-4.0284 0.16064-7.6809-2.1646-10.401 6.0091 0.76434 8.909-2.9792 11.604-7.6711 1.5397-2.6802 2.7776-5.2621 2.8718-7.8792 3.1602-0.41962 5.7202-2.6182 8.2965-5.2711 2.2008-2.2662 4.0729-4.5101 4.7761-7.0927 2.5218 2.1193 5.9626 2.44 9.7587 2.44 3.698 0 7.0587-0.30469 9.5614-2.2795 1.943 1.7557 4.6576 2.6664 7.653 3.4291 2.8594 0.72809 5.5586 1.215 8.0126 0.72498 0.89581 2.0465 2.4885 3.9049 4.3077 5.7781 2.5763 2.6528 5.1363 4.8514 8.2965 5.2711 0.09412 2.6171 1.332 5.199 2.8718 7.8792 1.8124 3.1549 3.716 5.8828 6.5952 7.0999-0.33618 1.8326-0.30023 3.8497-0.15546 5.9719 0.25177 3.6894 0.78455 7.0217 2.9251 9.3841-1.6194 2.058-2.3433 4.8283-2.9003 7.8687-0.78094 4.2627-1.072 8.1468 1.452 11.22-1.7494 1.049-3.3259 2.6172-4.9017 4.3713-2.4713 2.751-4.4905 5.4548-4.694 8.6362-2.6046 0.27203-5.0962 1.6828-7.6654 3.4014-3.509 2.3473-6.432 4.7804-6.9934 8.5577-2.6332-1.2773-5.7854-1.1123-9.1905-0.64771z" fill="#ffd700"/>
<circle cx="109.84" cy="99" r="50" fill="#3f3d56"/>
<rect transform="translate(-11.197 12.709) rotate(-1.2608)" x="570.89" y="466.26" width="2" height="97.749" fill="#3f3d56"/>
<path d="m570.98 509.66c-0.104-0.35449-2.4878-8.7793 2.665-17.045l1.6973 1.0586c-4.665 7.4824-2.4653 15.347-2.4429 15.425l-1.9194 0.56152z" fill="#3f3d56"/>
<path d="m574.41 493.47s-1.5353-10.493 12.608-13.373c2.9465-0.59998 5.7166-1.01 8.2558-1.2832 2.9973-0.3225 4.1664 3.7805 1.4588 5.1057-3.9213 1.9192-7.61 4.3374-9.5326 7.2009-5.3026 7.8976-12.79 2.35-12.79 2.35z" fill="#ffd700"/>
<path d="m573.27 540-1.9194-0.56152c0.02246-0.07812 2.2222-7.9414-2.4429-15.424l1.6973-1.0586c5.1528 8.2656 2.769 16.689 2.665 17.044z" fill="#3f3d56"/>
<path d="m569.84 523.81s1.5353-10.493-12.608-13.373c-2.9465-0.59998-5.7166-1.01-8.2558-1.2832-2.9973-0.3225-4.1664 3.7805-1.4588 5.1057 3.9213 1.9192 7.61 4.3374 9.5326 7.2009 5.3026 7.8976 12.79 2.35 12.79 2.35z" fill="#ffd700"/>
<path d="m589.53 452.69c2.8468-0.75062 5.509-2.0585 5.4207-3.3524-0.10489-1.537-4.0573-2.5669-7.467-2.7236 2.5718-2.0121 4.9349-4.7934 4.2123-6.0514-0.66437-1.1565-3.755-0.7085-6.6065 0.31005 1.6875-2.4126 2.8738-5.1311 1.9703-6.0614-1.1255-1.1589-5.12 0.84137-7.846 3.0524 0.53068-3.4446 0.2624-7.7925-1.2826-8.1859-1.2925-0.32909-3.1243 2.2002-4.3802 4.9554-0.55507-2.8914-1.6788-5.6364-2.9756-5.6364-1.8475 0-3.3451 5.5702-3.3451 9.1991 0 0.20513 0.00544 0.39823 0.0148 0.58273-0.18543-0.21498-0.39794-0.43956-0.64029-0.67493-2.6033-2.5282-7.6426-5.3345-8.9297-4.0092-0.90351 0.93035 0.28286 3.6489 1.9703 6.0614-2.8515-1.0186-5.9421-1.4665-6.6065-0.31005-0.89269 1.5539 2.9231 5.433 6.0248 7.3141-0.18645-0.02246-0.38234-0.04137-0.59081-0.05559-3.6205-0.24703-9.2797 0.86797-9.4055 2.7112-0.08829 1.2939 2.5739 2.6018 5.4207 3.3524-2.8343 1.0654-5.4824 2.7208-5.242 4.0327 0.2917 1.5922 4.741 2.1496 8.2394 1.8233-2.6136 2.5076-5.4475 6.9997-4.2648 8.3162 0.86669 0.96475 3.6597-0.03382 6.1815-1.5531-1.2103 2.7755-1.8676 5.8285-0.75906 6.57 1.465 0.98 5.4829-2.4308 7.6013-5.3657-0.21585 3.5905 0.64327 8.5232 2.3479 8.7178 1.2885 0.14715 2.7164-2.4527 3.5959-5.2624 0.9352 2.8799 2.4682 5.6006 3.7897 5.4203 1.7184-0.23449 2.4675-5.2906 2.147-8.8837 2.1851 2.8141 5.8626 5.8238 7.25 4.8958 1.1086-0.74156 0.45125-3.7945-0.75906-6.57 2.5218 1.5193 5.3148 2.5179 6.1815 1.5531 1.1827-1.3165-1.6513-5.8086-4.2648-8.3162 3.4984 0.32625 7.9477-0.23112 8.2394-1.8233 0.24035-1.3119-2.4077-2.9673-5.242-4.0327zm-15.329 10.156c-0.73178 0.09985-1.4009 0.24245-1.9098 0.60659-0.54059-0.53665-1.3301-0.70009-2.208-0.80033-0.98297-0.11225-1.8762-0.12309-2.5574 0.44416-0.24925-0.69279-0.86214-1.185-1.5761-1.6626-0.61388-0.41065-1.2092-0.74773-1.8316-0.81273-0.04862-0.76016-0.53109-1.4062-1.1216-2.0635-0.37651-0.41912-0.7532-0.79383-1.1712-1.0445 0.60308-0.73429 0.53354-1.6624 0.34694-2.6809-0.13309-0.72647-0.30604-1.3884-0.69298-1.8801 0.51146-0.56449 0.63876-1.3607 0.69892-2.2422 0.06567-0.96255 0.03838-1.8353-0.51721-2.4851 1.4358 0.18263 2.1287-0.71186 2.7727-1.8329 0.3679-0.6404 0.66369-1.2573 0.68617-1.8826 0.7551-0.10026 1.3668-0.62559 1.9824-1.2595 0.52586-0.54148 0.97317-1.0776 1.1412-1.6947 0.60255 0.50637 1.4247 0.58301 2.3317 0.58301 0.88359 0 1.6866-0.0728 2.2846-0.54465 0.46426 0.41951 1.1129 0.63711 1.8286 0.81935 0.68323 0.17397 1.3282 0.29032 1.9145 0.17322 0.21404 0.48899 0.5946 0.93303 1.0293 1.3806 0.61557 0.63386 1.2273 1.1592 1.9824 1.2595 0.02249 0.62532 0.31827 1.2422 0.68617 1.8826 0.43306 0.75383 0.88789 1.4056 1.5758 1.6964-0.08033 0.43787-0.07174 0.91985-0.03714 1.4269 0.06016 0.88154 0.18746 1.6777 0.69892 2.2422-0.38695 0.49173-0.55989 1.1537-0.69298 1.8801-0.1866 1.0185-0.25613 1.9466 0.34694 2.6809-0.418 0.25063-0.79469 0.62535-1.1712 1.0445-0.59049 0.65731-1.073 1.3034-1.1216 2.0635-0.62234 0.065-1.2177 0.40209-1.8316 0.81273-0.83844 0.56086-1.5368 1.1422-1.671 2.0448-0.62918-0.30519-1.3824-0.26577-2.196-0.15476z" fill="#ffd700"/>
<circle cx="572.25" cy="452.65" r="11.947" fill="#3f3d56"/>
<path d="m372.94 560.68c-5.7676 6.9098-6.8775 15.487-2.4794 19.157s12.637 1.0428 18.406-5.8703c2.3423-2.7299 3.9967-5.981 4.8249-9.4813l24.068-29.586-11.724-9.4878-24.628 28.823c-3.2969 1.4413-6.2005 3.6514-8.4679 6.4452z" fill="#ffb6b6"/>
<polygon points="478.13 414.45 486.5 447.63 445.51 513.26 403.65 555.32 390.09 544.07 432.3 491.55 464.29 423.88" fill="#e6e6e6"/>
<path d="m433.99 359.62c6.3228-0.01514 6.6817 0.02699 7.7043 0 7.8422-0.20681 9.8929-3.2921 13.868-3.0817 7.0945 0.37553-2.2692 35.945-6.1634 52.389-3.8192 16.127 9.0881 30.579 10.016 31.588 13.101 14.248 36.114 16.854 40.062 10.786 3.1962-4.9112-8.1311-12.379-5.393-23.113 2.6766-10.493 15.036-9.3757 18.49-19.261 3.618-10.352-8.5404-15.573-16.179-40.833-4.3869-14.507-3.6108-17.21-7.7043-26.195-10.942-24.016-64.574-13.791-58.553 8.4747 1.1647 4.307-1.9348 9.259 3.8522 9.2452z" fill="#2f2e41"/>
</svg>
