<?xml version="1.0" encoding="UTF-8"?>
<svg data-name="Layer 1" viewBox="0 0 765.6 667.74" xmlns="http://www.w3.org/2000/svg">
<path transform="translate(-217.2 -116.13)" d="m930.66 783.11v-72.34s28.192 51.286 0 72.34z" fill="#f1f1f1"/>
<path transform="translate(-217.2 -116.13)" d="m932.4 783.1-53.29-48.921s56.845 13.916 53.29 48.921z" fill="#f1f1f1"/>
<path transform="translate(-217.2 -116.13)" d="m487.42 244.91h-2.9776v-81.57a47.211 47.211 0 0 0-47.211-47.211h-172.82a47.211 47.211 0 0 0-47.211 47.211v447.5a47.211 47.211 0 0 0 47.211 47.211h172.82a47.211 47.211 0 0 0 47.211-47.211v-307.87h2.9776z" fill="#3f3d56"/>
<path transform="translate(-217.2 -116.13)" d="m439.13 128.41h-22.558a16.75 16.75 0 0 1-15.508 23.076h-99.005a16.75 16.75 0 0 1-15.508-23.076h-21.07a35.256 35.256 0 0 0-35.256 35.256v446.84a35.256 35.256 0 0 0 35.256 35.256h173.65a35.256 35.256 0 0 0 35.256-35.256v-446.84a35.256 35.256 0 0 0-35.256-35.256z" fill="#fff"/>
<circle cx="135.11" cy="261.23" r="84.446" fill="#0033a0" data-name="Ellipse 44"/>
<path transform="translate(-217.2 -116.13)" d="m377.33 383.13-21 21.63a4.7742 4.7742 0 0 1-3.5 1.41h-0.06983a4.8137 4.8137 0 0 1-3.5102-1.41l-20.99-21.63c-0.06982-0.08-0.1499-0.15-0.22021-0.22a4.6411 4.6411 0 0 1 0.22021-6.55 5.169 5.169 0 0 1 7.0801 0l12.44 13v-33.52a5.0199 5.0199 0 0 1 10.03 0v33.52l12.43-13a5.1813 5.1813 0 0 1 7.0898 0c0.07031 0.07 0.14013 0.14 0.22021 0.22a4.65 4.65 0 0 1-0.22021 6.55z" fill="#fff"/>
<polygon points="590.26 653.28 578 653.28 572.17 605.99 590.26 605.99" fill="#9f616a"/>
<path transform="translate(-217.2 -116.13)" d="m810.58 781.29-39.531-0.00147v-0.5a15.387 15.387 0 0 1 15.386-15.386h1e-3l24.144 1e-3z" fill="#2f2e41"/>
<polygon points="497.12 652.88 485.28 649.71 491.86 602.52 509.34 607.19" fill="#9f616a"/>
<path transform="translate(-217.2 -116.13)" d="m714.27 781.29-38.189-10.212 0.12914-0.483a15.387 15.387 0 0 1 18.839-10.89l9.4e-4 2.6e-4 23.324 6.2372z" fill="#2f2e41"/>
<polygon points="597.31 388.27 607.58 400.2 594.3 642.64 565.93 642.64 551.63 456.09 507.28 647.64 477.79 640.41 504.61 397.11" fill="#2f2e41"/>
<path transform="translate(-217.2 -116.13)" d="m728.66 347.87 28.246-14.167 43.437 0.76353 37.38 19.127-21.267 106.21 9.1868 55.38h-6e-5a226.53 226.53 0 0 1-108.34 0.8917l-0.28441-0.06756s21.114-74.916 12.126-97.779z" fill="#cbcbcb"/>
<path transform="translate(-217.2 -116.13)" d="m810.38 291.26a32.002 32.002 0 1 0 0 0.23684q4.2e-4 -0.1184 0-0.23684z" fill="#9f616a"/>
<path transform="translate(-217.2 -116.13)" d="m764.04 272.98a9.0792 9.0792 0 0 1 6.1169-2.4676c3.4191-0.11108 8.542 1.1031 10.722 3.8826 1.7523 2.2339 1.8361 5.3074 1.8428 8.1466l0.0185 7.8358c0.00548 2.3182 0.03367 4.7354 1.0869 6.8005s3.4709 3.6338 5.6796 2.9298c2.6201-0.83515 3.7723-4.3175 6.45-4.9437 2.011-0.47027 4.0767 0.99927 4.9558 2.8681a12.439 12.439 0 0 1 0.71577 6.086c-0.25348 4.103-6.1381 5.7306-6.9712 9.7561-0.482 2.3285-2.1694 6.9735 0 6 10-1 14.389-6.8409 18.966-12.339l10.323-12.401a12.121 12.121 0 0 0 2.6586-4.3024 11.951 11.951 0 0 0 0.27283-3.4307q-0.08443-4.6234-0.251-9.2443c-0.097-2.6916-0.77448-6.0876-3.4105-6.6408-1.371-0.28769-3.1854 0.214-3.9101-0.98483a2.7207 2.7207 0 0 1-0.124-1.911c0.58175-3.0763 1.5639-6.294 0.55141-9.2566-1.527-4.4681-6.785-6.3015-11.431-7.1445s-9.8616-1.5682-12.778-5.2819a40.501 40.501 0 0 0-2.5362-3.565 9.9558 9.9558 0 0 0-4.7546-2.3981 26.279 26.279 0 0 0-17.28 1.5336c-2.2474 1.0255-4.5048 2.4066-6.9702 2.2503-2.5608-0.16232-4.7483-1.9646-7.2765-2.403-4.0837-0.70822-7.9878 2.3513-10 5.9746-2.4936 4.4896-2.7225 10.638 0.80026 14.375 1.7574 1.8644 4.3795 3.145 5.1094 5.601 0.29708 0.99969 0.22812 2.0764 0.49087 3.0856a5.5701 5.5701 0 0 0 4.4887 3.8836c2.4971 0.40679 4.6098-0.73723 6.4442-2.2945z" fill="#2f2e41"/>
<path transform="translate(-217.2 -116.13)" d="m724.76 425.31a11.462 11.462 0 0 0 16.65 5.627l57.353 30.318 1.8572-13.971-55.73-32.863a11.524 11.524 0 0 0-20.131 10.889z" fill="#9f616a"/>
<path transform="translate(-217.2 -116.13)" d="m801.19 427.73a11.462 11.462 0 0 1-17.478 1.8475l-62.597 17.035 0.54489-17.738 62.269-16.174a11.524 11.524 0 0 1 17.261 15.03z" fill="#9f616a"/>
<path transform="translate(-217.2 -116.13)" d="m825.52 354.36 12.205-0.76465s14.29 18.855 6.3636 39.316c0 0 1.3731 73.499-30.276 70.48s-41.65-3.019-41.65-3.019l9.5-26.5 21.253-6.5618s-6.5501-28.894 5.8486-40.916z" fill="#cbcbcb"/>
<path transform="translate(-217.2 -116.13)" d="m737.39 353.71-1.7251-8.8425s-25.44-0.59763-30.47 37.951c0 0-22.877 57.692-0.45355 65.121s47.089 0 47.089 0l-1.8579-25.442-24.673-5.0353s12.746-16.489 5.8054-30.792z" fill="#cbcbcb"/>
<path transform="translate(-217.2 -116.13)" d="m981.8 783.87h-381a1 1 0 0 1 0-2h381a1 1 0 0 1 0 2z" fill="#cbcbcb"/>
</svg>
