<?xml version="1.0" encoding="UTF-8"?>
<svg data-name="Layer 1" viewBox="0 0 637.96 480" xmlns="http://www.w3.org/2000/svg">
<path transform="translate(-281.02 -210)" d="m784.98 518c-75.14 0-134-13.617-134-31 0-10.422 20.856-19.721 57.22-25.511a1 1 0 1 1 0.31445 1.9751c-34.255 5.4551-55.534 14.474-55.534 23.536 0 15.72 60.448 29 132 29s132-13.28 132-29c0-9.1006-21.416-18.141-55.89-23.593a1.0001 1.0001 0 0 1 0.3125-1.9756c36.591 5.7866 57.577 15.106 57.577 25.568 0 17.383-58.86 31-134 31z" fill="#ccc"/>
<path transform="translate(-281.02 -210)" d="m718.5 523.84a76.983 76.983 0 0 0 133.15-0.33551 1212 1212 0 0 1-133.15 0.33551z" fill="#e6e6e6"/>
<path transform="translate(-281.02 -210)" d="m859.02 502.12a76.997 76.997 0 1 0-147.86 0.79908 572.23 572.23 0 0 0 147.86-0.79908z" fill="#e6e6e6"/>
<path transform="translate(-281.02 -210)" d="m400.48 219a9 9 0 1 0-12.5 8.2939v46.706h7v-46.706a9.0022 9.0022 0 0 0 5.5-8.2939z" fill="#ccc"/>
<path transform="translate(-281.02 -210)" d="m450.98 443h-0.00293a20.021 20.021 0 0 1-19.986-20.771c0.40088-10.603 9.5811-19.229 20.464-19.229h54.945l45.212-20.015a5.0069 5.0069 0 0 1 6.596 2.5474l12.144 27.433a5.0062 5.0062 0 0 1-2.5478 6.5957l-44.532 19.714a35.4 35.4 0 0 1-14.002 3.0464z" fill="#ccc"/>
<path transform="translate(-281.02 -210)" d="m317.8 548.34a4.5949 4.5949 0 0 1-0.77759-0.0664l-29.57-5.0464h2.4e-4a4.4992 4.4992 0 0 1-3.6589-5.3013l23.146-118.05a19.5 19.5 0 0 1 38.442 6.5723l-23.186 118.26a4.4698 4.4698 0 0 1-4.3955 3.6362z" fill="#ccc"/>
<circle cx="20.957" cy="346" r="18" fill="#e6e6e6"/>
<circle cx="108.28" cy="124.68" r="67" fill="#e6e6e6"/>
<circle cx="108.28" cy="124.68" r="67" fill="#e6e6e6"/>
<circle cx="108.28" cy="124.68" r="51" fill="#ffd700"/>
<path transform="translate(-281.02 -210)" d="m395.26 356.09c-3.3059-0.0918-7.4203-0.20654-10.59-2.522a8.1328 8.1328 0 0 1-3.2001-6.0728 5.4708 5.4708 0 0 1 1.8604-4.4932c1.6555-1.3989 4.073-1.7271 6.6782-0.96143l-2.6992-19.726 1.9814-0.27149 3.1732 23.19-1.6547-0.75928c-1.9183-0.87988-4.5516-1.3276-6.188 0.05517a3.5152 3.5152 0 0 0-1.1527 2.8955 6.1468 6.1468 0 0 0 2.3812 4.5278c2.4667 1.8018 5.7462 2.0342 9.4658 2.1382z" fill="#2f2e41"/>
<rect x="85.721" y="114.01" width="10.772" height="2" fill="#2f2e41"/>
<rect x="119.72" y="114.01" width="10.772" height="2" fill="#2f2e41"/>
<path transform="translate(-281.02 -210)" d="m354.98 335a51.011 51.011 0 0 1 43.268-50.417 50.994 50.994 0 1 0-0.80371 100.69 51.004 51.004 0 0 1-42.464-50.275z" opacity=".2"/>
<path transform="translate(-281.02 -210)" d="m440.3 548.5h-102a16.519 16.519 0 0 1-16.5-16.5v-115a16.519 16.519 0 0 1 16.5-16.5h15.5v4.5a11.513 11.513 0 0 0 11.5 11.5h48a11.513 11.513 0 0 0 11.5-11.5v-4.5h15.5a16.519 16.519 0 0 1 16.5 16.5v115a16.519 16.519 0 0 1-16.5 16.5z" fill="#e6e6e6"/>
<path transform="translate(-281.02 -210)" d="m453.99 659h-40.009v-46.189l-52.251-80.116 33.504-21.851 52.022 79.768a36.189 36.189 0 0 1 5.8789 19.165z" fill="#e6e6e6"/>
<path transform="translate(-281.02 -210)" d="m383.48 689.5h-39v-117h39z" fill="#e6e6e6"/>
<path transform="translate(-281.02 -210)" d="m432.3 583.5h-86a8.5095 8.5095 0 0 1-8.5-8.5v-32a8.5095 8.5095 0 0 1 8.5-8.5h86a8.5095 8.5095 0 0 1 8.5 8.5v32a8.5095 8.5095 0 0 1-8.5 8.5z" fill="#e6e6e6"/>
<path transform="translate(-281.02 -210)" d="m460.98 677.5h-46.5v-31h46.5a15.5 15.5 0 0 1 0 31z" fill="#ccc"/>
<path transform="translate(-281.02 -210)" d="m390.98 689.5h-46.5v-31h46.5a15.5 15.5 0 0 1 0 31z" fill="#ccc"/>
<path transform="translate(-281.02 -210)" d="m437.98 451.5h-37a3.5 3.5 0 0 1 0-7h37a3.5 3.5 0 0 1 0 7z" fill="#fff"/>
<path transform="translate(-281.02 -210)" d="m578.48 466.5a6.0067 6.0067 0 0 1-6-6v-216a6 6 0 0 1 12 0v216a6.0067 6.0067 0 0 1-6 6z" fill="#3f3d56"/>
<path transform="translate(-281.02 -210)" d="m760.64 240.34c-5.27-4.61-23.37-18.96-46.72-21.58-17.47-1.95-37.88 2.66-58.05 22.84-16.18 16.18-31.44 23.85-45.36 22.81-14.21-1.0699-23.66-11.17-28.03-17.1a2.4433 2.4433 0 0 0-2.77-0.88 2.4697 2.4697 0 0 0-1.73 2.38v74.66a2.5093 2.5093 0 0 0 1.4302 2.26c5.4497 2.58 25.08 11.15 44.84 11.15 11.59 0 23.24-2.95 32.08-11.8 0.08985-0.09 0.16993-0.17005 0.25977-0.25 15.66-15.24 50.18-12.11 75.37-7.13 10.42 2.06 19.24 4.43 24.47 5.95a4.4928 4.4928 0 0 0 5.7398-4.32v-75.6a4.5135 4.5135 0 0 0-1.5298-3.39z" fill="#ffd700"/>
<circle cx="519.96" cy="234" r="9" fill="#fff"/>
<circle cx="503.96" cy="333" r="9" fill="#fff"/>
<circle cx="474.96" cy="265" r="15" fill="#fff"/>
</svg>
