<svg xmlns="http://www.w3.org/2000/svg" data-name="Layer 1" width="637.957" height="480"><path d="M503.957 308c-75.14 0-134-13.617-134-31 0-10.422 20.856-19.72 57.22-25.511a1 1 0 1 1 .314 1.975c-34.255 5.455-55.534 14.474-55.534 23.536 0 15.72 60.448 29 132 29s132-13.28 132-29c0-9.1-21.416-18.141-55.89-23.593a1 1 0 0 1 .313-1.975c36.59 5.786 57.577 15.106 57.577 25.568 0 17.383-58.86 31-134 31z" fill="#ccc"/><path d="M437.478 313.838a76.983 76.983 0 0 0 133.15-.335 1211.979 1211.979 0 0 1-133.15.335zM577.999 292.123a76.997 76.997 0 1 0-147.858.799 572.233 572.233 0 0 0 147.858-.8z" fill="#e6e6e6"/><path d="M119.457 9a9 9 0 1 0-12.5 8.294V64h7V17.294a9.002 9.002 0 0 0 5.5-8.294zM169.96 233h-.003a20.021 20.021 0 0 1-19.986-20.771c.401-10.603 9.581-19.229 20.464-19.229h54.945l45.212-20.015a5.007 5.007 0 0 1 6.596 2.547l12.145 27.433a5.006 5.006 0 0 1-2.548 6.596l-44.532 19.713a35.4 35.4 0 0 1-14.001 3.047zM36.774 338.343a4.595 4.595 0 0 1-.778-.067l-29.57-5.046a4.5 4.5 0 0 1-3.659-5.301l23.146-118.051a19.5 19.5 0 0 1 38.442 6.572L41.169 334.707a4.47 4.47 0 0 1-4.395 3.636z" fill="#ccc"/><circle cx="20.957" cy="346" r="18" fill="#e6e6e6"/><circle cx="108.28" cy="124.677" r="67" fill="#e6e6e6"/><circle cx="108.28" cy="124.677" r="67" fill="#e6e6e6"/><circle cx="108.28" cy="124.677" r="51" fill="gold"/><path d="M114.242 146.086c-3.306-.092-7.42-.206-10.59-2.522a8.133 8.133 0 0 1-3.2-6.073 5.47 5.47 0 0 1 1.86-4.493c1.656-1.399 4.073-1.727 6.679-.961l-2.7-19.726 1.982-.271 3.173 23.19-1.655-.76c-1.918-.88-4.551-1.327-6.188.056a3.515 3.515 0 0 0-1.152 2.895 6.147 6.147 0 0 0 2.38 4.528c2.468 1.802 5.747 2.034 9.467 2.138zM85.721 114.012h10.772v2H85.721zM119.721 114.012h10.772v2h-10.772z" fill="#2f2e41"/><path d="M73.957 125a51.011 51.011 0 0 1 43.268-50.417 50.994 50.994 0 1 0-.804 100.692A51.004 51.004 0 0 1 73.957 125z" opacity=".2"/><path d="M159.28 338.5h-102a16.519 16.519 0 0 1-16.5-16.5V207a16.519 16.519 0 0 1 16.5-16.5h15.5v4.5a11.513 11.513 0 0 0 11.5 11.5h48a11.513 11.513 0 0 0 11.5-11.5v-4.5h15.5a16.519 16.519 0 0 1 16.5 16.5v115a16.519 16.519 0 0 1-16.5 16.5z" fill="#e6e6e6"/><path d="M172.965 449h-40.008v-46.189l-52.251-80.116 33.504-21.851 52.023 79.767a36.19 36.19 0 0 1 5.878 19.165z" fill="#e6e6e6"/><path d="M102.457 479.5h-39v-117h39z" fill="#e6e6e6"/><path d="M151.28 373.5h-86a8.51 8.51 0 0 1-8.5-8.5v-32a8.51 8.51 0 0 1 8.5-8.5h86a8.51 8.51 0 0 1 8.5 8.5v32a8.51 8.51 0 0 1-8.5 8.5z" fill="#e6e6e6"/><path d="M179.957 467.5h-46.5v-31h46.5a15.5 15.5 0 0 1 0 31zM109.957 479.5h-46.5v-31h46.5a15.5 15.5 0 0 1 0 31z" fill="#ccc"/><path d="M156.957 241.5h-37a3.5 3.5 0 0 1 0-7h37a3.5 3.5 0 0 1 0 7z" fill="#fff"/><path d="M297.457 256.5a6.007 6.007 0 0 1-6-6v-216a6 6 0 0 1 12 0v216a6.007 6.007 0 0 1-6 6z" fill="#3f3d56"/><path d="M479.617 30.34c-5.27-4.61-23.37-18.96-46.72-21.58-17.47-1.95-37.88 2.66-58.05 22.84-16.18 16.18-31.44 23.85-45.36 22.81-14.21-1.07-23.66-11.17-28.03-17.1a2.443 2.443 0 0 0-2.77-.88 2.47 2.47 0 0 0-1.73 2.38v74.66a2.51 2.51 0 0 0 1.43 2.26c5.45 2.58 25.08 11.15 44.84 11.15 11.59 0 23.24-2.95 32.08-11.8.09-.09.17-.17.26-.25 15.66-15.24 50.18-12.11 75.37-7.13a294.34 294.34 0 0 1 24.47 5.95 4.493 4.493 0 0 0 5.74-4.32v-75.6a4.513 4.513 0 0 0-1.53-3.39z" fill="gold"/><circle cx="519.957" cy="234" r="9" fill="#fff"/><circle cx="503.957" cy="333" r="9" fill="#fff"/><circle cx="474.957" cy="265" r="15" fill="#fff"/></svg>