<?xml version="1.0" encoding="UTF-8"?>
<svg viewBox="-2100 -1470 4200 2940" xmlns="http://www.w3.org/2000/svg" xmlns:xlink="http://www.w3.org/1999/xlink">
<defs>
<path id="o" d="M-31.5 0h33a30 30 0 0030-30v-10a30 30 0 00-30-30h-33zm13-13h19a19 19 0 0019-19v-6a19 19 0 00-19-19h-19z" fill-rule="evenodd"/>
<path id="c" d="M-15.75-22C-15.75-15-9-11.5 1-11.5s14.74-3.25 14.75-7.75c0-14.25-46.75-5.25-46.5-30.25C-30.5-71-6-70 3-70s26 4 25.75 21.25H13.5c0-7.5-7-10.25-15-10.25-7.75 0-13.25 1.25-13.25 8.5-.25 11.75 46.25 4 46.25 28.75C31.5-3.5 13.5 0 0 0c-11.5 0-31.55-4.5-31.5-22z"/>
<path id="m" d="M-26.25 0h52.5v-12h-40.5v-16h33v-12h-33v-11H25v-12h-51.25z"/>
<path id="n" d="M-31.5 0h12v-48l14 48h11l14-48V0h12v-70H14L0-22l-14-48h-17.5z"/>
<path id="a" d="M0 0a31.5 35 0 000-70A31.5 35 0 000 0m0-13a18.5 22 0 000-44 18.5 22 0 000 44" fill-rule="evenodd"/>
<path id="h" d="M-31.5 0h13v-26h28a22 22 0 000-44h-40zm13-39h27a9 9 0 000-18h-27z" fill-rule="evenodd"/>
<path id="d" transform="translate(-31.5)" d="M0 0h63v-13H12v-18h40v-12H12v-14h48v-13H0z"/>
<g fill="#fff"></g>
<g id="j">
<clipPath id="q">
<path d="M-31.5 0v-70h63V0zM0-47v12h31.5v-12z"/>
</clipPath>
<use clip-path="url(#q)" xlink:href="#a"/>
<path d="M5-35h26.5v10H5z"/>
<path d="M21.5-35h10V0h-10z"/>
</g>
<g id="b">
<use xlink:href="#h"/>
<path d="M28 0c0-10 0-32-15-32H-6c22 0 22 22 22 32"/>
</g>
</defs>
<rect x="-50%" y="-50%" width="100%" height="100%" fill="#009b3a"/>
<path d="M-1743 0L0 1113 1743 0 0-1113z" fill="#fedf00"/>
<circle r="735" fill="#002776"/>
<clipPath id="p">
<circle r="735"/>
</clipPath>
<path d="M-2205 1470a1785 1785 0 013570 0h-105a1680 1680 0 10-3360 0z" clip-path="url(#p)" fill="#fff"/>
<g transform="translate(-420 1470)" fill="#009b3a">
<use transform="rotate(-7)" y="-1697.5" xlink:href="#a"/>
<use transform="rotate(-4)" y="-1697.5" xlink:href="#b"/>
<use transform="rotate(-1)" y="-1697.5" xlink:href="#o"/>
<use transform="rotate(2)" y="-1697.5" xlink:href="#d"/>
<use transform="rotate(5)" y="-1697.5" xlink:href="#n"/>
<use transform="rotate(9.75)" y="-1697.5" xlink:href="#m"/>
<use transform="rotate(14.5)" y="-1697.5" xlink:href="#h"/>
<use transform="rotate(17.5)" y="-1697.5" xlink:href="#b"/>
<use transform="rotate(20.5)" y="-1697.5" xlink:href="#a"/>
<use transform="rotate(23.5)" y="-1697.5" xlink:href="#j"/>
<use transform="rotate(26.5)" y="-1697.5" xlink:href="#b"/>
<use transform="rotate(29.5)" y="-1697.5" xlink:href="#d"/>
<use transform="rotate(32.5)" y="-1697.5" xlink:href="#c"/>
<use transform="rotate(35.5)" y="-1697.5" xlink:href="#c"/>
<use transform="rotate(38.5)" y="-1697.5" xlink:href="#a"/>
</g>
</svg>
