<svg id="visual" viewBox="0 0 1920 1080" width="1920" height="1080" xmlns="http://www.w3.org/2000/svg" xmlns:xlink="http://www.w3.org/1999/xlink" version="1.1"><path d="M0 369L45.7 370.7C91.3 372.3 182.7 375.7 274.2 352.3C365.7 329 457.3 279 548.8 272.8C640.3 266.7 731.7 304.3 823 335.7C914.3 367 1005.7 392 1097 365.8C1188.3 339.7 1279.7 262.3 1371.2 233.7C1462.7 205 1554.3 225 1645.8 266.7C1737.3 308.3 1828.7 371.7 1874.3 403.3L1920 435L1920 0L1874.3 0C1828.7 0 1737.3 0 1645.8 0C1554.3 0 1462.7 0 1371.2 0C1279.7 0 1188.3 0 1097 0C1005.7 0 914.3 0 823 0C731.7 0 640.3 0 548.8 0C457.3 0 365.7 0 274.2 0C182.7 0 91.3 0 45.7 0L0 0Z" fill="#036" stroke-linecap="round" stroke-linejoin="miter"></path></svg>
