<svg width="1920" height="1080" xmlns="http://www.w3.org/2000/svg"><defs><linearGradient id="a" x1="0%" y1="0%" x2="100%" y2="100%"><stop offset="0%" stop-color="#fffd00"/><stop offset="100%" stop-color="gold"/></linearGradient></defs><path fill="url(#a)" d="M0 0h1920v1080H0z"/><path d="m194 0 18 25.7c18 25.6 54 77 73.2 128.5 19.1 51.5 21.5 103.1 3.6 154.6-17.8 51.5-55.8 102.9-76 154.2-20.1 51.3-22.5 102.7-3.3 154s59.8 102.7 64.2 154.2c4.3 51.5-27.7 103.1-44.4 154.6-16.6 51.5-18 102.9-18.6 128.5l-.7 25.7H0V0z" fill="#036"/><path d="m179 0-5.8 25.7c-5.9 25.6-17.5 77-11 128.5s31.1 103.1 34 154.6C199 360.3 180 411.7 167.7 463c-12.4 51.3-18 102.7-24.7 154-6.7 51.3-14.3 102.7-20 154.2-5.7 51.5-9.3 103.1-6.5 154.6 2.8 51.5 12.2 102.9 16.8 128.5l4.7 25.7H0V0z" fill="#0056b0"/><path d="m68 0 3 25.7c3 25.6 9 77 8.3 128.5-.6 51.5-8 103.1-12.1 154.6C63 360.3 62 411.7 68.5 463c6.5 51.3 20.5 102.7 31 154S117 719.7 122 771.2c5 51.5 8 103.1 6.8 154.6-1.1 51.5-6.5 102.9-9.1 128.5L117 1080H0V0z" fill="#007bff"/></svg>