<svg xmlns="http://www.w3.org/2000/svg" width="1920" height="1080" preserveAspectRatio="none"><g mask="url(&quot;#a&quot;)" fill="none"><path fill="url(&quot;#b&quot;)" d="M0 0h1920v1080H0z"/><g stroke-linecap="round" stroke-width="32.25"><path d="M1455.4 417.645v64.5M1455.4 530.52v32.25M1455.4 611.145v51.21M1498.4 457.625v64.5M1498.4 570.5v51.875M1541.4 484.805v110.4" stroke="#3a7cc3"/><path d="M1584.4 491.205v97.59M1627.4 456.295v64.5M1627.4 569.17v54.545" stroke="rgba(0, 51, 102, 1)"/><path d="M1670.4 539.355v1.29" stroke="#3a7cc3"/><path d="M1713.4 528.635v22.73M1756.4 512.685v54.64" stroke="rgba(0, 51, 102, 1)"/><path d="M1799.4 424.245v231.51" stroke="#3a7cc3"/><path d="M1842.4 487.255v105.5M1885.4 482.625v114.75" stroke="rgba(0, 51, 102, 1)"/></g></g><defs><linearGradient x1="10.94%" y1="-19.44%" x2="89.06%" y2="119.44%" gradientUnits="userSpaceOnUse" id="b"><stop stop-color="rgba(255, 253, 0, 1)" offset="0"/><stop stop-color="rgba(255, 215, 0, 1)" offset="1"/></linearGradient><mask id="a"><path fill="#fff" d="M0 0h1920v1080H0z"/></mask></defs></svg>