<svg xmlns="http://www.w3.org/2000/svg" width="1920" height="1080" preserveAspectRatio="none"><g mask="url(&quot;#SvgjsMask1316&quot;)" fill="none"><path fill="url(&quot;#SvgjsLinearGradient1317&quot;)" d="M0 0h1920v1080H0z"/><path d="m1796.29 809.412 161.78-19.864-19.863-161.781-161.782 19.864z" fill="rgba(255, 215, 0, 1)" style="animation:float2 4s infinite"/><path d="M1619.64 760.8a268.16 268.16 0 1 0 536.32 0 268.16 268.16 0 1 0-536.32 0z" fill="rgba(255, 215, 0, 1)" class="triangle-float1"/><path d="M106.564 883.522 260.96 1104.02l220.498-154.395-154.394-220.498z" fill="rgba(255, 215, 0, 1)" style="animation:float3 6s infinite"/><path d="M70.52 447.73a200.65 200.65 0 1 0 401.3 0 200.65 200.65 0 1 0-401.3 0z" fill="rgba(255, 215, 0, 1)" class="triangle-float1"/></g><defs><linearGradient x1="10.94%" y1="-19.44%" x2="89.06%" y2="119.44%" gradientUnits="userSpaceOnUse" id="SvgjsLinearGradient1317"><stop stop-color="rgba(0, 51, 102, 1)" offset="0"/><stop stop-color="rgba(0, 123, 255, 1)" offset="1"/></linearGradient><style>@keyframes float1{0%,to{transform:translate(0,0)}50%{transform:translate(-10px,0)}}@keyframes float2{0%,to{transform:translate(0,0)}50%{transform:translate(-5px,-5px)}}@keyframes float3{0%,to{transform:translate(0,0)}50%{transform:translate(0,-10px)}}.triangle-float1{animation:float1 5s infinite}</style><mask id="SvgjsMask1316"><path fill="#fff" d="M0 0h1920v1080H0z"/></mask></defs></svg>