<svg xmlns="http://www.w3.org/2000/svg" width="1920" height="1080" preserveAspectRatio="none"><g mask="url(&quot;#a&quot;)" fill="none"><path fill="url(&quot;#b&quot;)" d="M0 0h1920v1080H0z"/><g mask="url(&quot;#c&quot;)"><path d="M-24 552h96" stroke="rgba(255, 215, 0, 1)" stroke-width="8"/><path d="M60 552a12 12 0 1 0 24 0 12 12 0 1 0-24 0z" fill="rgba(255, 215, 0, 1)"/><path d="m216 552 48-48m-192 0h144m-240 0h96l48 48h144" stroke="rgba(255, 196, 0, 1)" stroke-width="8"/><path d="M252 552a12 12 0 1 0 24 0 12 12 0 1 0-24 0zm0-48a12 12 0 1 0 24 0 12 12 0 1 0-24 0zm-48 0a12 12 0 1 0 24 0 12 12 0 1 0-24 0z" fill="rgba(255, 196, 0, 1)"/><path d="m312 600 48-48m-384 48h384" stroke="rgba(255, 196, 0, 1)" stroke-width="8"/><path d="M348 600a12 12 0 1 0 24 0 12 12 0 1 0-24 0zm0-48a12 12 0 1 0 24 0 12 12 0 1 0-24 0z" fill="rgba(255, 196, 0, 1)"/><path d="m264 456 48-48h144m-480 48h384" stroke="rgba(255, 196, 0, 1)" stroke-width="8"/><path d="M348 456a12 12 0 1 0 24 0 12 12 0 1 0-24 0zm96-48a12 12 0 1 0 24 0 12 12 0 1 0-24 0z" fill="rgba(255, 196, 0, 1)"/><path d="M-24 648h240" stroke="rgba(255, 196, 0, 1)" stroke-width="8"/><path d="M204 648a12 12 0 1 0 24 0 12 12 0 1 0-24 0z" fill="rgba(255, 196, 0, 1)"/><path d="m72 408 48-48m48 48 48-48h96M24 408l48-48 48-48h48m-192 96h240" stroke="rgba(255, 215, 0, 1)" stroke-width="8"/><path d="M204 408a12 12 0 1 0 24 0 12 12 0 1 0-24 0zm-96-48a12 12 0 1 0 24 0 12 12 0 1 0-24 0zm192 0a12 12 0 1 0 24 0 12 12 0 1 0-24 0zm-144-48a12 12 0 1 0 24 0 12 12 0 1 0-24 0z" fill="rgba(255, 215, 0, 1)"/><path d="m264 744 48 48m-144-96h144m0 48h144m-480-48h192l48 48h96l48 48h48l48 48" stroke="rgba(255, 196, 0, 1)" stroke-width="8"/><path d="M444 840a12 12 0 1 0 24 0 12 12 0 1 0-24 0zm-144-48a12 12 0 1 0 24 0 12 12 0 1 0-24 0zm0-96a12 12 0 1 0 24 0 12 12 0 1 0-24 0zm144 48a12 12 0 1 0 24 0 12 12 0 1 0-24 0z" fill="rgba(255, 196, 0, 1)"/><path d="m72 744 48 48m-144-48h192" stroke="rgba(255, 215, 0, 1)" stroke-width="8"/><path d="M156 744a12 12 0 1 0 24 0 12 12 0 1 0-24 0zm-48 48a12 12 0 1 0 24 0 12 12 0 1 0-24 0z" fill="rgba(255, 215, 0, 1)"/><path d="M-24 312h48" stroke="rgba(255, 215, 0, 1)" stroke-width="8"/><path d="M12 312a12 12 0 1 0 24 0 12 12 0 1 0-24 0z" fill="rgba(255, 215, 0, 1)"/></g></g><defs><mask id="a"><path fill="#fff" d="M0 0h1920v1080H0z"/></mask><mask id="c"><path fill="#fff" d="M0 0h1920v1080H0z"/><path d="M66 552a6 6 0 1 0 12 0 6 6 0 1 0-12 0zM258 552a6 6 0 1 0 12 0 6 6 0 1 0-12 0zm0-48a6 6 0 1 0 12 0 6 6 0 1 0-12 0zm-48 0a6 6 0 1 0 12 0 6 6 0 1 0-12 0zM354 600a6 6 0 1 0 12 0 6 6 0 1 0-12 0zm0-48a6 6 0 1 0 12 0 6 6 0 1 0-12 0zM354 456a6 6 0 1 0 12 0 6 6 0 1 0-12 0zm96-48a6 6 0 1 0 12 0 6 6 0 1 0-12 0zM210 648a6 6 0 1 0 12 0 6 6 0 1 0-12 0zM210 408a6 6 0 1 0 12 0 6 6 0 1 0-12 0zm-96-48a6 6 0 1 0 12 0 6 6 0 1 0-12 0zm192 0a6 6 0 1 0 12 0 6 6 0 1 0-12 0zm-144-48a6 6 0 1 0 12 0 6 6 0 1 0-12 0zM450 840a6 6 0 1 0 12 0 6 6 0 1 0-12 0zm-144-48a6 6 0 1 0 12 0 6 6 0 1 0-12 0zm0-96a6 6 0 1 0 12 0 6 6 0 1 0-12 0zm144 48a6 6 0 1 0 12 0 6 6 0 1 0-12 0zM162 744a6 6 0 1 0 12 0 6 6 0 1 0-12 0zm-48 48a6 6 0 1 0 12 0 6 6 0 1 0-12 0zM18 312a6 6 0 1 0 12 0 6 6 0 1 0-12 0z"/></mask><linearGradient x1="10.94%" y1="-19.44%" x2="89.06%" y2="119.44%" gradientUnits="userSpaceOnUse" id="b"><stop stop-color="#0e2a47" offset="0"/><stop stop-color="#00459e" offset="1"/></linearGradient></defs></svg>