<svg xmlns="http://www.w3.org/2000/svg" width="1920" height="1080" preserveAspectRatio="none"><g mask="url(&quot;#a&quot;)" fill="none"><path fill="url(&quot;#b&quot;)" d="M0 0h1920v1080H0z"/><path d="M-46.51 131c64 137.4 192 615.4 320 687 128 71.6 192-353.8 320-329 128 24.8 192 525.8 320 453 128-72.8 192-768.8 320-817 128-48.2 192 525.4 320 576 128 50.6 192-347.6 320-323 128 24.6 310.7 461.2 320 446 9.3-15.2-218.79-417.6-273.49-522" stroke="rgba(0, 123, 255, 1)" stroke-width="2"/><path d="M-497.95 685c64-80.2 192-395.4 320-401 128-5.6 192 342 320 373s192-232 320-218 192 329 320 288 192-514.6 320-493c128 21.6 192 613.6 320 601 128-12.6 220.41-677.2 320-664 99.59 13.2 142.36 584 177.95 730" stroke="rgba(0, 123, 255, 1)" stroke-width="2"/><path d="M-267.468 202c63.998 114 191.998 588.8 320 570 127.998-18.8 191.998-648.6 320-664 127.998-15.4 191.998 555 320 587 127.998 32 191.998-446.2 320-427 127.998 19.2 191.998 480.6 320 523 127.998 42.4 191.998-277.8 320-311 127.998-33.2 266.508 136.6 320 145 53.498 8.4-42.022-82.4-52.532-103" stroke="rgba(0, 123, 255, 1)" stroke-width="2"/></g><defs><linearGradient x1="10.94%" y1="-19.44%" x2="89.06%" y2="119.44%" gradientUnits="userSpaceOnUse" id="b"><stop stop-color="#0e2a47" offset="0"/><stop stop-color="#00459e" offset="1"/></linearGradient><mask id="a"><path fill="#fff" d="M0 0h1920v1080H0z"/></mask></defs></svg>